<?xml version="1.0" encoding="UTF-8" standalone="no"?>
<!-- Generator: Adobe Illustrator 27.0.0, SVG Export Plug-In . SVG Version: 6.00 Build 0)  -->

<svg
   version="1.1"
   id="Capa_1"
   x="0px"
   y="0px"
   viewBox="0 0 512 512"
   xml:space="preserve"
   sodipodi:docname="jotaele_og_square.svg"
   width="512"
   height="512"
   inkscape:version="1.2.2 (b0a8486541, 2022-12-01)"
   inkscape:export-filename="jotaele_og.png"
   inkscape:export-xdpi="96"
   inkscape:export-ydpi="96"
   xmlns:inkscape="http://www.inkscape.org/namespaces/inkscape"
   xmlns:sodipodi="http://sodipodi.sourceforge.net/DTD/sodipodi-0.dtd"
   xmlns="http://www.w3.org/2000/svg"
   xmlns:svg="http://www.w3.org/2000/svg"><defs
   id="defs2795" /><sodipodi:namedview
   id="namedview2793"
   pagecolor="#ffffff"
   bordercolor="#000000"
   borderopacity="0.25"
   inkscape:showpageshadow="2"
   inkscape:pageopacity="0.0"
   inkscape:pagecheckerboard="0"
   inkscape:deskcolor="#d1d1d1"
   showgrid="false"
   inkscape:zoom="0.5909028"
   inkscape:cx="366.38852"
   inkscape:cy="515.31318"
   inkscape:window-width="1854"
   inkscape:window-height="1011"
   inkscape:window-x="66"
   inkscape:window-y="32"
   inkscape:window-maximized="1"
   inkscape:current-layer="Capa_1" />
<style
   type="text/css"
   id="style2772">
	.st0{fill:#2C4494;}
	.st1{fill:#14AED7;}
</style>
<g
   id="g2790"
   transform="matrix(0.45768338,0,0,0.83630262,592.0448,-798.96168)">
	
	
	
	
	
	
	<rect
   style="fill:#2a3b9b;fill-opacity:1;stroke:#a1ffc4;stroke-width:0;stroke-linecap:round;stroke-linejoin:round;stroke-miterlimit:4.7;paint-order:stroke markers fill"
   id="rect3204"
   width="1305.4609"
   height="709.61737"
   x="-1386.9603"
   y="906.65057"
   rx="0.5612821"
   ry="0.65303701" />
</g><g
   id="g3431"
   transform="matrix(1.6408185,0,0,1.6408185,365.86217,790.56641)"><g
     id="g3845"
     transform="matrix(0.82871519,0,0,0.82871519,-35.551403,-79.757201)"><g
       id="g3869"
       transform="translate(0,42.441499)"><g
         id="g4061"
         transform="matrix(0.90178466,0,0,0.90178466,-3.7218876,-33.32733)"><g
           id="g3857"
           transform="translate(-2.911021)"><path
             class="st0"
             d="m 110.66211,-441.79718 v 6.20344 c -6.32596,-5.61975 -14.294614,-8.46256 -23.75845,-8.46256 -12.441803,0 -22.99408,4.49176 -31.364686,13.35166 -8.324768,8.81061 -12.545562,19.92429 -12.545562,33.03111 0,13.10664 4.220794,24.22033 12.544861,33.03094 8.36856,8.85989 18.920806,13.35166 31.365387,13.35166 9.499877,0 17.46854,-2.81558 23.75845,-8.38126 v 6.53735 h 26.92682 v -88.66234 z m -4.9292,59.38842 c -3.75189,3.97265 -8.511135,5.90379 -14.550472,5.90379 -6.09198,0 -10.861298,-1.95506 -14.580475,-5.977 -3.776001,-4.08117 -5.611664,-9.05085 -5.611664,-15.19156 0,-6.14089 1.835663,-11.11038 5.611664,-15.19229 3.719177,-4.02139 8.488495,-5.97644 14.580475,-5.97644 6.037323,0 10.797272,1.93114 14.549922,5.90323 3.79697,4.02452 5.64219,9.01755 5.64219,15.2655 0,6.24925 -1.84522,11.24283 -5.64164,15.26477 z"
             id="path2776"
             style="fill:#ffffff" /><path
             class="st0"
             d="m -31.129284,-416.79063 c -2.24736,-5.43084 -5.457886,-10.18529 -9.634537,-14.25984 -4.179764,-4.07474 -9.220627,-7.25988 -15.122574,-9.55819 -5.902115,-2.29683 -12.563247,-3.44764 -19.980575,-3.44764 -7.312119,0 -13.946381,1.15081 -19.899285,3.44764 -5.956015,2.29831 -11.023915,5.48345 -15.200565,9.55819 -4.17978,4.07455 -7.39031,8.829 -9.63765,14.25984 -2.24754,5.43249 -3.36671,11.28201 -3.36671,17.55001 v 3.7611 c 0,6.05959 1.06821,11.75164 3.21053,17.07891 2.13937,5.32893 5.27503,10.0293 9.40367,14.10404 4.12569,4.07308 9.16655,7.26116 15.119625,9.558 5.956032,2.29702 12.746087,3.44764 20.370385,3.44764 7.624481,0 14.41748,-1.15062 20.373504,-3.44764 5.953079,-2.29684 10.990998,-5.48492 15.119629,-9.558 4.125702,-4.07474 7.26117,-8.77511 9.403656,-14.10404 2.139374,-5.32727 3.210541,-11.01932 3.210541,-17.07891 v -3.7611 c 0,-6.268 -1.122299,-12.11752 -3.369644,-17.55001 z m -30.185547,34.38187 c -3.752091,3.97265 -8.511139,5.90379 -14.550674,5.90379 -6.091965,0 -10.861298,-1.95506 -14.58046,-5.977 -3.775818,-4.08117 -5.611664,-9.05085 -5.611664,-15.19156 0,-6.14089 1.835846,-11.11056 5.611664,-15.19229 3.719162,-4.02139 8.488495,-5.97644 14.58046,-5.97644 6.037338,0 10.797302,1.93114 14.549926,5.90323 3.796982,4.02452 5.642212,9.01755 5.642212,15.2655 0,6.24925 -1.84523,11.24265 -5.641464,15.26477 z"
             id="path2778"
             style="fill:#ffffff" /><polygon
             class="st0"
             points="26.240711,33.405888 55.131603,33.405888 55.131603,99.108238 11.1713,99.108238 11.1713,122.47837 22.626408,122.47837 55.131603,122.47837 83.104195,122.47837 83.104195,102.18911 83.104195,97.577049 83.104195,32.651131 83.104195,9.9724588 55.131603,9.9724588 26.240711,9.9724588 "
             id="polygon2780"
             transform="translate(-218.72854,-475.61321)"
             style="fill:#ffffff" /><polygon
             class="st0"
             points="251.20621,33.405952 232.92075,33.405952 230.59467,33.405952 230.59467,9.9723883 202.62207,9.9723883 202.62207,100.65118 202.62207,105.26324 202.62207,122.47829 233.52116,122.47829 251.80664,122.47829 251.80664,99.108185 230.59467,99.108185 230.59467,56.776047 251.20621,56.776047 "
             id="polygon2782"
             transform="translate(-218.72854,-475.61321)"
             style="fill:#ffffff" /></g><g
           id="g3851"
           transform="translate(-1.856761,-7.70327)"><polygon
             class="st0"
             points="454.65469,122.47829 482.62729,122.47829 482.62729,9.9723883 454.65469,9.9723883 "
             id="polygon2774"
             transform="translate(-513.10865,-329.63653)"
             style="fill:#ffffff" /><g
             id="g2786"
             transform="translate(-513.10865,-329.63653)"
             style="fill:#ffffff">
		<path
   class="st0"
   d="m 555.22638,95.444366 h 26.25006 c -2.10089,5.483594 -5.0777,10.326254 -8.92334,14.527974 -9.10132,9.56425 -20.42462,14.34993 -33.95557,14.34993 -13.53808,0 -24.65478,-4.34414 -33.3431,-13.03956 -8.69541,-8.69542 -13.03956,-19.805049 -13.03956,-33.343119 0,-13.530953 4.34415,-24.647702 13.03956,-33.343117 8.68832,-8.688298 19.80502,-13.039566 33.3431,-13.039566 13.06806,0 23.91419,4.265812 32.55262,12.783188 8.63134,8.517379 12.9541,19.135616 12.9541,31.847595 0,1.637955 -0.17804,3.85276 -0.52698,6.651527 l -0.34894,2.100861 h -64.75628 c 0.46289,5.369652 2.53527,9.777893 6.20996,13.217605 3.67474,3.439706 8.31085,5.163126 13.91552,5.163126 4.66462,0 8.86634,-1.28188 12.59803,-3.852762 1.86584,-1.402946 3.21185,-2.741798 4.03082,-4.023682 z M 518.47205,69.187202 h 40.25103 c -2.57092,-11.665107 -9.27227,-17.497661 -20.12555,-17.497661 -10.85321,0 -17.56176,5.832554 -20.12548,17.497661 z"
   id="path2784"
   style="fill:#ffffff" />
	</g><polygon
             class="st1"
             points="398.00836,99.108528 398.00836,77.94236 428.28879,77.94236 428.28879,54.572224 398.00836,54.572224 398.00836,33.406059 441.9664,33.406059 441.9664,9.9725332 398.00836,9.9725332 370.03622,9.9725332 370.03622,32.650787 370.03622,97.57711 370.03622,102.18914 370.03622,122.47866 398.00836,122.47866 430.51364,122.47866 441.96872,122.47866 441.96872,99.108528 "
             id="polygon2788"
             transform="translate(-513.10865,-329.63653)"
             style="fill:#14aed7;fill-opacity:1" /></g></g></g></g></g>
</svg>
