<?xml version="1.0" encoding="utf-8"?>
<!-- Generator: Adobe Illustrator 27.0.0, SVG Export Plug-In . SVG Version: 6.00 Build 0)  -->
<svg version="1.1" id="Layer_1" xmlns="http://www.w3.org/2000/svg" xmlns:xlink="http://www.w3.org/1999/xlink" x="0px" y="0px"
	 viewBox="0 0 800 800" style="enable-background:new 0 0 800 800;" xml:space="preserve">
<style type="text/css">
	.st0{fill:#FFFFFF;}
</style>
<path id="behance" class="st0" d="M236.9211578,148.2571411c23.9543304,0,45.81987,2.1332092,65.5966339,6.3552246
	c19.7767334,4.2220001,36.6647644,11.1549683,50.7528992,20.7989197
	c14.0881653,9.6439514,25.0209656,22.4432983,32.7983398,38.4424744s11.6438293,35.7315063,11.6438293,59.241394
	c0,25.3764648-5.7774658,46.5309448-17.2879944,63.4634094c-11.5105286,16.9324341-28.576355,30.7984314-51.10849,41.5978394
	c31.0206299,8.9328613,54.1749878,24.5765381,69.4631042,46.8864746
	c15.2881165,22.309967,22.9321594,49.2419434,22.9321594,80.7514038c0,25.3764343-4.933075,47.3753357-14.7992554,65.952179
	c-9.8662109,18.5768433-23.1543579,33.7316284-39.864624,45.4643555
	c-16.7102356,11.7771606-35.7315063,20.4434204-57.1081543,26.0875244
	c-21.5100403,5.644104-43.6866455,8.4884644-65.9077301,8.4440308H0V148.2571411H236.9211578z M222.8329926,352.0244446
	c19.7323303,0,35.9537201-4.7108459,48.6641693-14.0881348c12.7104492-9.4217224,19.0657043-24.6654053,19.0212402-45.8198547
	c0-11.7327576-2.1332397-21.3766785-6.3552246-28.8874207c-4.2220154-7.5107269-9.8661804-13.421524-16.9324646-17.6435394
	c-7.0663147-4.2220001-15.1547699-7.1551666-24.3098602-8.7995453c-9.4217529-1.6443634-18.9768066-2.488739-28.5763092-2.4443054
	H110.7498703v117.7717285l112.0831375-0.0888672L222.8329926,352.0244446z M229.1882019,565.657959
	c10.4439087,0.0444336,20.843399-1.0222168,31.0206299-3.1553955c9.8661804-2.1332397,18.5768127-5.644104,26.0875549-10.5772705
	c7.5107422-4.9330444,13.510437-11.6437988,17.9990845-20.0878296c4.4442139-8.4439697,6.7107544-19.2879028,6.7107544-32.442749
	c0-25.8208923-7.2885437-44.3088379-21.8655701-55.3305054c-14.5769958-11.0661011-33.8649139-16.5769348-57.8192596-16.5769348
	H110.7498703v138.2151184l118.4383621-0.0444336H229.1882019z M560.9934082,555.0806885
	c15.0214233,14.5770874,36.6647339,21.8655396,64.8855591,21.8655396c20.2211304,0,37.5980225-5.0664062,52.1751099-15.1547852
	c14.5770264-10.0883179,23.5098877-20.7989502,26.798645-32.0872192h88.1287842
	c-14.0881348,43.7311401-35.7314453,74.973938-64.8855591,93.7729492
	c-29.1540527,18.7990723-64.3966675,28.2208252-105.7723389,28.2208252c-28.6651611,0-54.5305176-4.5775757-77.5515747-13.732666
	s-42.5311279-22.2210693-58.530304-39.1535034c-15.999176-16.9324951-28.354126-37.1092529-37.0203247-60.6191406
	c-8.6662292-23.5099487-13.0215759-49.3752441-13.0215759-77.5515747c0-27.2430725,4.4442139-52.6195374,13.3770752-76.1294556
	s21.6433105-43.8199463,38.0869141-60.9746094s36.0870361-30.6651001,58.8858643-40.5312805
	c22.7988281-9.8661499,48.0863647-14.7992249,75.8182983-14.7992249c31.0206909,0,58.0414429,5.9996948,81.1069336,17.9990845
	c23.0211182,11.9993896,41.9534302,28.0874023,56.7526245,48.3085938
	c14.7992554,20.2211914,25.5097656,43.2422485,32.0872192,69.1075745
	c6.5775146,25.8653259,8.9329224,52.8861694,7.0662842,81.1069336h-263.008728
	c1.3776855,32.3094177,9.5994873,55.8193665,24.6209717,70.3519592H560.9934082z M674.187561,363.3127747
	c-11.9993896-13.1548767-30.2207031-19.7323303-54.6638794-19.7323303c-15.9991455,0-29.2874146,2.710968-39.8201904,8.0884399
	c-10.5772095,5.421936-19.0212402,12.0882568-25.3764648,20.0878296
	c-6.3552246,7.9996033-10.7994385,16.4436035-13.3770752,25.3764648
	c-2.5776367,8.9328918-4.1331177,16.9324646-4.5775146,23.9543457h162.8804932
	c-4.7553101-25.3320312-13.1104126-44.6199341-25.0653687-57.7748108V363.3127747z M519.2177124,173.8113861h203.5006714v56.4415436
	H519.2177124V173.8113861z"/>
</svg>
