<?xml version="1.0" encoding="UTF-8"?>
<svg id="Layer_1" xmlns="http://www.w3.org/2000/svg" version="1.1" viewBox="0 0 800 800">
  <!-- Generator: Adobe Illustrator 29.0.0, SVG Export Plug-In . SVG Version: 2.1.0 Build 186)  -->
  <defs>
    <style>
      .st0 {
        fill: #fff;
      }
    </style>
  </defs>
  <path class="st0" d="M174.1322054,96.1927428c91.4260011,68.6368764,189.7650273,207.8038574,225.8701705,282.4889646,36.1078705-74.6795896,134.4414001-213.8534518,225.8701705-282.4889646,65.9681845-49.5256236,172.8536543-87.8457308,172.8536543,34.0908845,0,24.3523986-13.9622487,204.5728111-22.1512024,233.8309097-28.4647604,101.7213134-132.1892973,127.6658535-224.4540152,111.9630231,161.2768958,27.4486833,202.3042394,118.3687438,113.7008984,209.2887624-168.2751813,172.6749093-241.8603775-43.324762-260.7241408-98.6717604-3.4565335-10.146421-5.0739658-14.8930233-5.0977565-10.8568274-.0239166-4.0363218-1.641223.7104064-5.0977565,10.8568274-18.8554974,55.3469983-92.4393089,271.3522082-260.7241408,98.6717604-88.6046837-90.9200186-47.5787457-181.8455338,113.7008984-209.2887624-92.2674452,15.7028304-195.9933877-10.2418356-224.4540152-111.9630231C15.2357333,334.853711,1.2737993,154.633288,1.2737993,130.2836273,1.2737993,8.347012,108.1620279,46.6671139,174.127464,96.1927428h.0047414Z"/>
</svg>