<?xml version="1.0" encoding="utf-8"?>
<!-- Generator: Adobe Illustrator 27.0.0, SVG Export Plug-In . SVG Version: 6.00 Build 0)  -->
<svg version="1.1" id="Capa_1" xmlns="http://www.w3.org/2000/svg" xmlns:xlink="http://www.w3.org/1999/xlink" x="0px" y="0px"
	 viewBox="0 0 445.9144897 449.7272339" style="enable-background:new 0 0 445.9144897 449.7272339;" xml:space="preserve">
<style type="text/css">
	.st0{fill:#2C4294;}
</style>
<path class="st0" d="M255.1430054,0C149.9506226,0,64.3705444,85.5795898,64.3705444,190.7714844
	c0,38.4693604,11.456543,74.3080444,31.1213989,104.3051147L0,390.5685425l59.1586304,59.1586914l96.3399048-96.3400269
	c29.0192871,17.847229,63.1489868,28.1557617,99.6444702,28.1557617c105.1914062,0,190.7714844-85.5800781,190.7714844-190.7714844
	C445.9144897,85.5795898,360.3344116,0,255.1430054,0z M255.1430054,314.5429688
	c-68.2480469,0-123.7724609-55.5234375-123.7724609-123.7714844S186.8949585,67,255.1430054,67
	s123.7714844,55.5234375,123.7714844,123.7714844S323.3910522,314.5429688,255.1430054,314.5429688z"/>
</svg>
