<?xml version="1.0" encoding="UTF-8"?>
<svg id="Capa_1" xmlns="http://www.w3.org/2000/svg" version="1.1" viewBox="0 0 408.9341655 573.5476711">
  <!-- Generator: Adobe Illustrator 29.0.0, SVG Export Plug-In . SVG Version: 2.1.0 Build 186)  -->
  <defs>
    <style>
      .st0 {
        fill: #2a3b9b;
      }
    </style>
  </defs>
  <g>
    <path class="st0" d="M353.7018214,151.0538649H53.1446925c-19.5429688,0-35.5996094-15.2807617-36.5546875-34.7880859-.0131836-.2705078-.0195312-.5410156-.019043-.8120117l.0366211-19.8378906c.0004883-.3652344.0136719-.7299805.0395508-1.09375,1.8168945-25.8193359,44.0043945-48.1347656,62.0581055-56.5307617,22.7583008-10.5830078,69.7182617-28.3378906,128.5307617-28.3378906,43.5058594,0,87.9394531,10.1225586,125.1171875,28.503418,15.5820312,7.703125,29.0869141,16.5180664,39.0556641,25.4916992,11.8447266,10.6621094,18.1708984,21.0849609,18.8017578,30.9785156.0205078.3300781.03125.6611328.0322266.9921875l.0322266,19.9682617c0,.2695312-.0058594.5390625-.0195312.8081055-.9511719,19.4345703-17.0078125,34.6582031-36.5537109,34.6582031ZM48.5719386,114.9542555c.2470703,2.2470703,2.2841797,4.0996094,4.5727539,4.0996094h300.5571289c2.3310547,0,4.328125-1.7597656,4.5722656-3.9711914l-.0202884-12.5119684c-.0071671-4.4200112-1.7014278-8.6737247-4.7705365-11.8544671-6.2702982-6.4983696-18.7107142-16.1069965-38.9757766-25.6408888-32.1035156-15.1040039-70.2001953-23.421875-107.2714844-23.421875-50.140625,0-90.8125,14.6245117-110.59375,23.3422852-20.1303294,8.8714862-33.3080454,17.7860543-40.7621129,24.2899816-4.6389232,4.0476183-7.2789706,9.9117688-7.290391,16.068285l-.0178086,9.6002294ZM48.3741847,97.8712477v.0004883-.0004883ZM358.3893214,97.4264235h0Z"/>
    <path class="st0" d="M344.73363,563.8941969H62.1158137c-25.1335017,0-45.5082305-20.3747288-45.5082305-45.5082305v-50.3839296c0-25.1335017,20.3747288-45.5082305,45.5082305-45.5082305h282.6178163c25.134041,0,45.5092071,20.375166,45.5092071,45.5092071v50.3819765c0,25.134041-20.375166,45.5092071-45.5092071,45.5092071ZM62.1158137,454.4938063c-7.4603897,0-13.5082305,6.0478408-13.5082305,13.5082305v50.3839296c0,7.4603897,6.0478408,13.5082305,13.5082305,13.5082305h282.6187929c7.4603897,0,13.5082305-6.0478408,13.5082305-13.5082305v-50.382953c0-7.4609291-6.048278-13.5092071-13.5092071-13.5092071H62.1158137Z"/>
  </g>
  <rect class="st0" x="125.7286536" y="213.7217276" width="155.3886923" height="32" rx="11.7900595" ry="11.7900595"/>
  <g>
    <rect class="st0" x="48.3443865" y="165.9920336" width="32" height="241.5636039" rx="11.7900595" ry="11.7900595"/>
    <rect class="st0" x="326.5016131" y="165.9920336" width="32" height="241.5636039" rx="11.7900595" ry="11.7900595"/>
  </g>
</svg>