<?xml version="1.0" encoding="utf-8"?>
<!-- Generator: Adobe Illustrator 27.0.0, SVG Export Plug-In . SVG Version: 6.00 Build 0)  -->
<svg version="1.1" id="Capa_1" xmlns="http://www.w3.org/2000/svg" xmlns:xlink="http://www.w3.org/1999/xlink" x="0px" y="0px"
	 viewBox="0 0 512 512" style="enable-background:new 0 0 512 512;" xml:space="preserve">
<style type="text/css">
	.st0{fill:#2A3B9B;}
</style>
<path class="st0" d="M154.4166565,37.1041641c-8.8283691,0.1379242-15.8766327,7.4006195-15.7499847,16.2291679v10.6666641
	h-5.3333282C95.0857162,63.9999962,64,95.0857086,64,133.3333282V378.666687C64,416.9142761,95.0857162,448,133.3333435,448h174.625
	c8.8365479,0.1249695,16.1012878-6.9371948,16.2262573-15.7737427c0.124939-8.8365479-6.9372253-16.1012878-15.7737732-16.2262573
	c-0.1508179-0.0021057-0.3016663-0.0021057-0.4524841,0h-174.625C111.8476181,416,96,400.1524048,96,378.666687V133.3333282
	C96,111.8476181,111.8476181,96,133.3333435,96h5.3333282v5.3333282
	c-0.1249542,8.8365631,6.9371948,16.1013031,15.7737579,16.2262497c8.8365479,0.1249619,16.1012878-6.9371948,16.2262421-15.7737503
	c0.0021362-0.1508179,0.0021362-0.3016663,0-0.4524994V53.3333321c0.12677-8.8365326-6.9338989-16.1027184-15.7704315-16.2294769
	C154.7363892,37.1015625,154.5765076,37.1016655,154.4166565,37.1041641z M357.0833435,37.1041641
	c-8.8283691,0.1379204-15.8766479,7.4006157-15.75,16.2291679v10.6666641h-128.6875
	c-8.8365479-0.1249542-16.1013031,6.9371986-16.2262573,15.7737541C196.2946472,88.6103058,203.3567963,95.8750458,212.1933441,96
	c0.1508179,0.0021362,0.3016815,0.0021362,0.4524994,0h128.6875v5.3333282
	c-0.1249695,8.8365631,6.9372253,16.1013031,15.7737732,16.2262497c8.8365479,0.1249619,16.1012573-6.9371948,16.2262268-15.7737503
	c0.0021057-0.1508179,0.0021057-0.3016663,0-0.4524994V96h5.3333435C400.1524048,96,416,111.8476181,416,133.3333282v16H142.75
	c-8.8365631-0.124939-16.1013031,6.9371948-16.2262573,15.7737579s6.9371948,16.1012878,15.7737579,16.2262421
	c0.1508179,0.0021362,0.3016663,0.0021362,0.4524994,0H416V378.666687C416,400.1524048,400.1524048,416,378.666687,416h-17.5833435
	c-8.8365479-0.124939-16.1012878,6.9372253-16.2262268,15.7737732C344.7321472,440.610321,351.794281,447.875061,360.6308289,448
	c0.1508484,0.0021362,0.3016663,0.0021362,0.4525146,0h17.5833435C416.9142761,448,448,416.9142761,448,378.666687V167.9583282
	c0.2821655-1.7176514,0.2821655-3.4698334,0-5.1875v-29.4375C448,95.0857086,416.9142761,64,378.666687,64h-5.3333435V53.3333321
	c0.1267395-8.8365326-6.9339294-16.1027184-15.7704163-16.2294769
	C357.4030457,37.1015625,357.2431641,37.1016655,357.0833435,37.1041641z M293.3333435,256
	C272.9071655,256,256,272.907135,256,293.3333435V336c0,20.4262085,16.9071655,37.3333435,37.3333435,37.3333435H336
	c20.4262085,0,37.3333435-16.907135,37.3333435-37.3333435v-42.6666565C373.3333435,272.907135,356.4262085,256,336,256H293.3333435
	z M293.3333435,288H336c3.1471558,0,5.3333435,2.1861877,5.3333435,5.3333435V336
	c0,3.1471558-2.1861877,5.3333435-5.3333435,5.3333435h-42.6666565C290.1861877,341.3333435,288,339.1471558,288,336v-42.6666565
	C288,290.1861877,290.1861877,288,293.3333435,288z"/>
</svg>
