<?xml version="1.0" encoding="utf-8"?>
<!-- Generator: Adobe Illustrator 27.6.1, SVG Export Plug-In . SVG Version: 6.00 Build 0)  -->
<svg version="1.1" id="Capa_1" xmlns="http://www.w3.org/2000/svg" xmlns:xlink="http://www.w3.org/1999/xlink" x="0px" y="0px"
	 viewBox="0 0 512 447.9963074" style="enable-background:new 0 0 512 447.9963074;" xml:space="preserve">
<style type="text/css">
	.st0{fill:#FFFFFF;}
</style>
<path class="st0" d="M140.8000031,0C63.2632523,0,0,63.2632599,0,140.8000031
	c0,52.4307709,39.5218544,101.7971191,87.6999969,152.4250031S195.179245,395.1292419,242.4249878,442.375
	c7.4981689,7.4950867,19.651825,7.4950867,27.1499939,0c47.2457581-47.2457581,106.5468445-98.5220947,154.7250061-149.1499939
	S512,193.2307739,512,140.8000031C512,63.2632599,448.7367249,0,371.1999817,0C326.7016296,0,287.9592896,23.8910522,256,64.4749985
	C224.0406952,23.8910522,185.2984009,0,140.8000031,0z M140.8000031,38.3999977
	c37.4857025,0,68.6886444,19.9475098,98.9749908,67.8499908c5.6717224,8.9608154,17.5336914,11.627182,26.4945374,5.9554901
	c2.4014282-1.5199814,4.4355164-3.5540619,5.9554749-5.9554901c30.2863464-47.9024849,61.4892578-67.8499908,98.9749756-67.8499908
	c56.786499,0,102.4000244,45.6135445,102.4000244,102.4000092c0,30.7692413-30.8781738,77.4028931-77.1000061,125.9749908
	c-42.1500244,44.2933044-94.5440063,90.5684204-140.5,135.3750305
	c-45.9559784-44.8066101-98.3499451-91.0817261-140.4999695-135.3750305
	c-46.2218704-48.5720978-77.1000214-95.2057495-77.1000214-125.9749908
	C38.4000053,84.0135422,84.0135345,38.3999977,140.8000031,38.3999977z"/>
</svg>
