<?xml version="1.0" encoding="utf-8"?>
<!-- Generator: Adobe Illustrator 27.0.0, SVG Export Plug-In . SVG Version: 6.00 Build 0)  -->
<svg version="1.1" id="Capa_1" xmlns="http://www.w3.org/2000/svg" xmlns:xlink="http://www.w3.org/1999/xlink" x="0px" y="0px"
	 viewBox="0 0 512 512" style="enable-background:new 0 0 512 512;" xml:space="preserve">
<style type="text/css">
	.st0{fill:#2A3B9B;}
</style>
<path class="st0" d="M197.3333435,31.9999962c-8.8365479-0.1249542-16.1013031,6.9371948-16.2262573,15.7737541
	c-0.124939,8.8365517,6.9372101,16.1012917,15.7737579,16.2262459c0.1508179,0.0021324,0.3016815,0.0021324,0.4524994,0H314.666687
	c8.8365479,0.124958,16.1012878-6.9371948,16.2262573-15.7737503c0.124939-8.8365555-6.9372253-16.1012955-15.7737732-16.2262497
	c-0.1508179-0.0021324-0.3016663-0.0021324-0.4524841,0H197.3333435z M406.5833435,74.5
	c-8.8367004,0.1123123-15.9092712,7.3669434-15.7969666,16.2036591c0.0551453,4.3376694,1.8690186,8.4670868,5.026123,11.4421692
	l25.0208435,24.3333359c6.3320007,6.1692429,16.4662781,6.0373001,22.635498-0.2947159
	c6.169281-6.3320084,6.037323-16.4662781-0.2947083-22.6355209c-0.0025024-0.0024185-0.0049744-0.004837-0.0074463-0.0072632
	L418.125,79.1875C415.0689087,76.1301346,410.9058228,74.4393463,406.5833435,74.5z M256,85.3333282
	c-49.0415955,0-93.9682007,18.4694061-127.9166718,48.8125c-6.7674484,5.6834869-7.6461792,15.7769623-1.9626999,22.5444031
	c5.6834793,6.7674561,15.7769547,7.6461792,22.5444107,1.9627075c0.2502136-0.210144,0.493927-0.427887,0.7308044-0.6529388
	C177.7193909,132.684433,214.9722748,117.3333359,256,117.3333359c88.5589294,0,160,71.4410629,160,160
	c0,29.0768738-7.7102356,56.2001343-21.208313,79.6666565c-4.5966797,7.5479126-2.2042847,17.3930359,5.3436279,21.9897156
	c7.5478821,4.5967102,17.3930054,2.2042542,21.9897461-5.3436279c0.1375732-0.2259521,0.2695618-0.4552307,0.3957825-0.6877441
	C438.71875,344.7981873,448,312.0857849,448,277.3333435C448,171.4816132,361.8517456,85.3333282,256,85.3333282z
	 M255.75,149.1041718c-8.8283844,0.1379089-15.8766479,7.4006042-15.75,16.2291565v85.3750153
	c-11.764801,8.8594971-14.1200104,25.5788574-5.260498,37.3436584c1.4990845,1.9906921,3.2698212,3.7614136,5.260498,5.260498V304
	c-0.1249542,8.8365479,6.9371948,16.1013184,15.7737427,16.2262573C264.610321,320.3511963,271.875061,313.289032,272,304.4524841
	c0.0021362-0.1508179,0.0021362-0.3016663,0-0.4524841v-10.7083435c11.7648315-8.8594971,14.1200256-25.5788574,5.260498-37.3436584
	c-1.4990845-1.9906769-3.2698059-3.7614136-5.260498-5.260498v-85.3541718
	c0.12677-8.8365173-6.9338989-16.1027069-15.7704163-16.2294617
	C256.0697327,149.1015625,255.9098511,149.1016693,255.75,149.1041718z M91.8333359,196.25
	c-6.4213486,0.2434845-12.0741425,4.3046417-14.3541641,10.3125C68.7805405,228.4779205,64,252.3853455,64,277.3333435
	c0,105.8517151,86.1482697,192,192,192c31.8738098,0,62.0322266-7.8036804,88.5208435-21.5833435
	c7.8413086-4.0788574,10.8913574-13.7420044,6.8125-21.583313s-13.7420349-10.8913574-21.5833435-6.8125
	c-22.06604,11.4790039-47.085144,17.9791565-73.75,17.9791565c-88.5589294,0-160-71.4410706-160-160
	c0-20.8760071,3.9709702-40.7452698,11.2083359-58.9791718c3.3763123-8.1670532-0.5073624-17.5248108-8.6744308-20.901123
	C96.412529,196.5760498,94.1273041,196.1657562,91.8333359,196.25z"/>
</svg>
