<?xml version="1.0" encoding="utf-8"?>
<!-- Generator: Adobe Illustrator 27.0.0, SVG Export Plug-In . SVG Version: 6.00 Build 0)  -->
<svg version="1.1" id="Layer_1" xmlns="http://www.w3.org/2000/svg" xmlns:xlink="http://www.w3.org/1999/xlink" x="0px" y="0px"
	 viewBox="0 0 800 800" style="enable-background:new 0 0 800 800;" xml:space="preserve">
<style type="text/css">
	.st0{fill:#FFFFFF;}
</style>
<g>
	<path class="st0" d="M400,0.0013884c-220.9254456,0-399.9999695,179.0992584-399.9999695,399.9999695
		S179.0745544,799.9985962,400,799.9985962S800,620.899353,800,399.9986267S620.9226685,0.0013884,400,0.0013884z
		 M662.4714966,193.600174c42.9987793,54.6011047,69.3258057,122.7982635,71.3991699,197.0231781
		c-89.7487183-15.7242737-167.1481323-16.1993713-234.0244446-5.5993347
		c-8.4745178-19.4508057-17.1989441-38.3495789-26.1485596-56.6497192
		C545.423584,298.8754578,609.7487183,255.8492279,662.4714966,193.600174z M616.4465332,145.8011932
		c-47.0987549,57.1742401-106.2254944,96.5233917-173.1237183,123.300827
		c-42.8257751-79.3491669-86.8735352-145.4757385-122.0733337-193.7498169
		c25.2752991-6.176033,51.5996399-9.4741211,78.7257996-9.4741211
		C482.5484009,65.8506241,558.0969238,96.0249939,616.4465332,145.8011932z M256.3751221,98.375679
		c34.0244446,45.4235916,79.2997437,111.2233963,123.57547,191.8989258
		c-93.8486938,25.7750854-198.8246613,32.7255249-305.0748291,33.0248413
		C98.3248749,223.9008636,166.1732941,141.5007629,256.3751221,98.375679z M65.8986816,399.9711304l0.2746124-10.8004761h1.7987061
		c119.0498505,0,237.2483673-7.7989807,343.223938-39.025116c7.9005737,16.0758057,15.6748657,32.5744629,23.276123,49.5510254
		c-139.4233093,40.8759766-226.3490295,132.6238708-285.9234009,219.9231262
		C97.1495361,560.899353,65.8986816,484.0244141,65.8986816,399.9711304z M197.2483978,665.2738647
		c56.3998413-84.9484863,134.9993134-168.9990234,262.8999023-204.300415
		c29.8750305,76.5509033,54.2496643,160.098877,67.1509094,247.8483887
		c-39.2503052,16.3009644-82.2243652,25.3000488-127.2744751,25.3000488
		C323.7978821,734.1218872,253.4999237,708.4484253,197.2483978,665.2738647z M588.7491455,675.5251465
		c-13.6756592-80.1757202-36.0758057-156.6496582-63.0509033-227.5490723
		c58.4511719-7.4254761,125.6487427-5.624054,203.5479736,8.699707
		C713.6729126,547.2208862,661.6229248,625.449646,588.7491455,675.5251465z"/>
</g>
</svg>
