<?xml version="1.0" encoding="utf-8"?>
<!-- Generator: Adobe Illustrator 27.0.0, SVG Export Plug-In . SVG Version: 6.00 Build 0)  -->
<svg version="1.1" id="Capa_1" xmlns="http://www.w3.org/2000/svg" xmlns:xlink="http://www.w3.org/1999/xlink" x="0px" y="0px"
	 viewBox="0 0 512 512" style="enable-background:new 0 0 512 512;" xml:space="preserve">
<style type="text/css">
	.st0{fill:#2A3B9B;}
</style>
<g>
	<g>
		<g>
			<path class="st0" d="M441.0388794,449.6826477c0.1248779,8.8365173-6.9372864,16.1012878-15.7738037,16.2262573
				c-0.1507874,0.0020752-0.3016663,0.0020752-0.4524536,0l-242.1143951-0.0000305c-8.8365479,0-15.9999847-7.1634521-15.9999695-16
				v-0.0000305c0-8.8365479,7.1634369-15.9999695,15.9999695-15.9999695h242.1143951
				C433.6491699,433.7839355,440.9138794,440.8460693,441.0388794,449.6826477z"/>
		</g>
		<g>
			<path class="st0" d="M137.7354431,449.6826477c0.1248932,8.8365173-6.9372864,16.1012878-15.7737808,16.2262573
				c-0.150795,0.0020752-0.3016815,0.0020752-0.4524765,0l-34.5497208-0.0000305c-8.8365555,0-15.9999924-7.1634521-15.9999847-16
				v-0.0000305c0.0000153-8.8365479,7.1634445-15.9999695,15.9999847-15.9999695h34.5497208
				C130.3457336,433.7839355,137.6104584,440.8460693,137.7354431,449.6826477z"/>
		</g>
	</g>
	<path class="st0" d="M425.0419312,70.3438568c-1.1920776-1.4312744-2.4505615-2.8250732-3.7759399-4.1782227
		c-1.4508667-1.4389038-2.9535522-2.793335-4.4954834-4.0775757c-27.2190552-22.6689453-67.8157959-21.2515869-93.3455811,4.2781982
		L138.6290436,251.1620941l-19.5194168,19.5194244l-22.2231445,22.2232056l-0.1434937,0.664978l-21.3746948,99.0687256
		c-0.0210571,0.0911255-0.0397339,0.1826172-0.0591431,0.2739868c-0.0119019,0.0560913-0.0250244,0.1119995-0.0363159,0.1682129
		c-0.1070557,0.5325928-0.1849365,1.06427-0.2374268,1.593689c-0.0136719,0.1402588-0.0126343,0.2833252-0.022644,0.4243164
		c-0.0274658,0.3796387-0.0528564,0.7590942-0.0532837,1.1353149c0.0004272,0.3762207,0.0258179,0.7557373,0.0532837,1.135376
		c0.0100098,0.1410522,0.0089111,0.2840576,0.022644,0.4243164c0.0524902,0.5294189,0.1304321,1.0610352,0.2374878,1.5936279
		c0.2132568,1.0609741,0.5296021,2.0745239,0.9317627,3.0360718c0.1350708,0.321106,0.2925415,0.6311035,0.4478149,0.9420776
		c0.0728149,0.1463013,0.1365356,0.2985229,0.213501,0.4419556c0.1807861,0.3359985,0.3833008,0.6593018,0.5873413,0.9813843
		c0.0714722,0.112854,0.1352539,0.2315063,0.2094116,0.3422241c0.1959229,0.2927856,0.4119263,0.5714111,0.626709,0.8508911
		c0.1021729,0.1326294,0.1968384,0.2717896,0.3029175,0.4008179c0.1872559,0.2285156,0.3918457,0.4425659,0.5917358,0.6607056
		c0.154541,0.1680298,0.3024292,0.3425293,0.4636841,0.503479c0.1609497,0.1611938,0.3354492,0.3092041,0.503479,0.4636841
		c0.2181396,0.1998901,0.432312,0.40448,0.6608276,0.5917969c0.128479,0.1055908,0.2669067,0.1998291,0.3988647,0.3015747
		c0.2802124,0.2154541,0.5598755,0.4320679,0.8535767,0.62854c0.1089478,0.072937,0.225769,0.1356812,0.336792,0.2061157
		c0.3234863,0.2050781,0.6482544,0.4083862,0.9857788,0.5900269c0.1442871,0.0774536,0.2974243,0.1415405,0.444519,0.2147217
		c0.3102417,0.1548462,0.6193848,0.3120117,0.9396973,0.4467163c0.9615479,0.4021606,1.9750977,0.7185059,3.0360718,0.9317627
		c0.5325928,0.1070557,1.064209,0.1849365,1.5936279,0.2374268c0.1402588,0.0136719,0.2832642,0.0126343,0.4243164,0.022644
		c0.3796387,0.0274658,0.7591553,0.0528564,1.135376,0.0532837c0.3762207-0.0004272,0.7556763-0.0258179,1.1353149-0.0532837
		c0.1409912-0.0100098,0.2840576-0.0089111,0.4243164-0.022644c0.5294189-0.0524902,1.0610962-0.1303711,1.593689-0.2374268
		c0.0564575-0.0113525,0.1125488-0.0244751,0.1688843-0.036438c0.0911255-0.0193481,0.1824951-0.0379639,0.2733765-0.05896
		l99.0687332-21.3746948l0.4799194-0.1035767l22.3356934-22.3356934l19.4068604-19.4068604l184.9163055-184.916214
		C446.2935791,138.1595306,447.7109375,97.562912,425.0419312,70.3438568z M111.8319778,375.3627319l11.8377686-54.866333
		l43.028511,43.0285645L111.8319778,375.3627319z M193.8132477,345.3850708L141.7370758,293.30896L298.614624,136.4313812
		l52.0761719,52.0761108L193.8132477,345.3850708z M398.1363525,141.0619354l-24.8181152,24.8181152l-52.0761719-52.0761108
		l24.8102417-24.8102417c15.1290283-15.1290283,37.4146729-15.1872559,52.6036377-0.1849365
		C413.3165283,103.9886932,413.1502686,126.0480194,398.1363525,141.0619354z"/>
</g>
</svg>
