<?xml version="1.0" encoding="utf-8"?>
<!-- Generator: Adobe Illustrator 27.0.0, SVG Export Plug-In . SVG Version: 6.00 Build 0)  -->
<svg version="1.1" id="Capa_1" xmlns="http://www.w3.org/2000/svg" xmlns:xlink="http://www.w3.org/1999/xlink" x="0px" y="0px"
	 viewBox="0 0 144 144" style="enable-background:new 0 0 144 144;" xml:space="preserve">
<style type="text/css">
	.st0{fill:#FFFFFF;}
	.st1{fill:#0FADD7;}
	.st2{fill:#FDFFFF;}
	.st3{fill:#31448F;}
</style>
<rect class="st0" width="144" height="144"/>
<g>
	<g>
		<rect x="12.3720188" y="76.3270645" class="st1" width="119.2559814" height="34.4302063"/>
		<g>
			<polygon class="st2" points="40.7632637,81.5363388 17.9136009,81.5363388 17.9136009,86.8792496 25.709959,86.8792496 
				25.709959,105.6137466 32.9636993,105.6137466 32.9636993,86.8792496 40.7632637,86.8792496 			"/>
			<polygon class="st2" points="51.849514,100.599617 51.849514,95.8834763 62.2605476,95.8834763 62.2605476,90.8706741 
				51.849514,90.8706741 51.849514,86.5490799 62.8443985,86.5490799 62.8443985,81.5363388 51.849514,81.5363388 
				51.0689659,81.5363388 44.8305588,81.5363388 44.8305588,105.6137466 51.0689659,105.6137466 51.849514,105.6137466 
				63.0792007,105.6137466 63.0792007,100.599617 			"/>
			<path class="st2" d="M81.3050308,106.274086c-2.5734024,0-4.7850571-0.3798218-6.6286697-1.1381073
				c-1.8467484-0.7596359-3.3666687-1.7595062-4.5629349-3.0023041c-1.1962662-1.2414398-2.0815659-2.5889359-2.6527176-4.0397415
				c-0.571167-1.4521561-0.8567429-2.8586884-0.8567429-4.2222748v-0.7260742c0-1.5165939,0.2919159-3.0063324,0.8757629-4.469223
				c0.5870438-1.4615631,1.4818649-2.786232,2.6908112-3.973999c1.2089767-1.1877594,2.7225342-2.1326065,4.5439072-2.8372116
				c1.8181992-0.7032547,3.9505463-1.0549011,6.3938522-1.0549011c2.5987778,0,4.9056473,0.4120331,6.9205856,1.236084
				c2.0149231,0.8254013,3.6332321,1.9796066,4.854866,3.4639893c1.2216568,1.4843597,1.9356155,3.2049561,2.1450348,5.1617432
				H87.775032c-0.1808701-0.8347931-0.5711823-1.5608673-1.167717-2.1769028
				c-0.5997086-0.6146774-1.3644409-1.0938034-2.3005142-1.4347153c-0.9360733-0.340889-2.0022354-0.5113373-3.1985016-0.5113373
				c-1.1169357,0-2.1259918,0.1650848-3.0208206,0.4952393c-0.8979874,0.3288116-1.6531906,0.7972107-2.2624435,1.4011612
				c-0.6123886,0.6053009-1.0788498,1.3367386-1.4025116,2.1930084c-0.326828,0.8576126-0.4886551,1.8266068-0.4886551,2.9029846
				c0,1.0777054,0.1618271,2.045372,0.4886551,2.902977c0.3236618,0.8576126,0.8059692,1.5944214,1.4405975,2.2091141
				c0.6378021,0.6160202,1.4120407,1.0844116,2.3195419,1.402504c0.9106979,0.3194199,1.9514771,0.4777832,3.1223679,0.4777832
				c1.8181915,0,3.3571548-0.3731079,4.620079-1.1206512c1.2597198-0.7475662,2.0212631-1.7487793,2.2782898-3.0023041h7.2537613
				c-0.2348099,1.8038025-0.9487686,3.4532318-2.1450272,4.948349c-1.1962814,1.4951172-2.8082199,2.6882401-4.8326874,3.5780563
				C86.4518204,105.8284988,84.0593033,106.274086,81.3050308,106.274086z"/>
			<path class="st2" d="M118.6010208,105.6137466h7.4853973l-9.43367-24.0774078h-11.6200409l-9.1258545,24.0774078h7.253746
				l2.0098648-5.5737762h11.3661652L118.6010208,105.6137466z M106.9785309,95.0258408l3.0803757-8.542511h1.4567642
				l3.1638718,8.542511H106.9785309z"/>
		</g>
	</g>
	<g>
		<path class="st3" d="M117.6472321,40.7155991v1.9442329c-1.9826279-1.7613029-4.4800949-2.6522713-7.4461594-2.6522713
			c-3.8994217,0-7.2066193,1.4077759-9.8300629,4.1845703c-2.6090851,2.7613411-3.9319229,6.2444992-3.9319229,10.3523331
			c0,4.1077652,1.3228378,7.5909233,3.931694,10.352272c2.6228104,2.7767944,5.9300079,4.1845703,9.8302917,4.1845703
			c2.977356,0,5.4748306-0.8824463,7.4461594-2.6267776v2.0488739h8.4391861V40.7155991H117.6472321z M116.1023712,59.3286247
			c-1.1758957,1.2450638-2.6674805,1.8503036-4.5602951,1.8503036c-1.9092941,0-3.4040527-0.6127357-4.5696945-1.8732605
			c-1.1834335-1.2790909-1.7587433-2.8366394-1.7587433-4.7612038c0-1.924633,0.5753098-3.4821281,1.7587433-4.7614441
			c1.1656418-1.2603531,2.6604004-1.8730888,4.5696945-1.8730888c1.8921738,0,3.3839874,0.6052399,4.5601273,1.8501472
			c1.1900024,1.2613258,1.7683182,2.8262062,1.7683182,4.7843857
			C117.8705215,56.5030518,117.2922058,58.0681,116.1023712,59.3286247z"/>
		<path class="st3" d="M73.208168,48.5529366c-0.7043457-1.7020836-1.7105637-3.1921806-3.019577-4.4691963
			c-1.3099823-1.2770691-2.8898544-2.2753296-4.7395859-2.9956474c-1.8497963-0.7198524-3.9374619-1.0805321-6.2621422-1.0805321
			c-2.2917061,0-4.3709602,0.3606796-6.2366714,1.0805321c-1.8666801,0.7203178-3.4550247,1.7185783-4.7640266,2.9956474
			c-1.3099976,1.2770157-2.3162155,2.7671127-3.0205574,4.4691963c-0.7043991,1.70261-1.0551682,3.5359154-1.0551682,5.5003738
			v1.1787834c0,1.8991394,0.3347931,3.6830902,1.0062218,5.352726c0.6705017,1.6701508,1.6532555,3.1432915,2.947216,4.4203682
			c1.293045,1.2765503,2.8729095,2.2757263,4.7386665,2.9955826c1.8666878,0.7199097,3.9947739,1.0805359,6.3843193,1.0805359
			c2.389595,0,4.5186005-0.3606262,6.3852882-1.0805359c1.8657684-0.7198563,3.4447021-1.7190323,4.7386703-2.9955826
			c1.2930374-1.2770767,2.2757339-2.7502174,2.9472122-4.4203682c0.6705093-1.6696358,1.006218-3.4535866,1.006218-5.352726
			v-1.1787834C74.2642517,52.0888519,73.9125137,50.2555466,73.208168,48.5529366z M63.7476654,59.3286247
			c-1.1759453,1.2450638-2.6674843,1.8503036-4.5603485,1.8503036c-1.9092903,0-3.4040527-0.6127357-4.5696869-1.8732605
			c-1.1833801-1.2790909-1.7587585-2.8366394-1.7587585-4.7612038c0-1.924633,0.5753784-3.4821815,1.7587585-4.7614441
			c1.1656342-1.2603531,2.6603966-1.8730888,4.5696869-1.8730888c1.8921738,0,3.3840027,0.6052399,4.5601234,1.8501472
			c1.1900139,1.2613258,1.7683296,2.8262062,1.7683296,4.7843857C65.51577,56.5030518,64.9374542,58.0680389,63.7476654,59.3286247z
			"/>
		<polygon class="st3" points="31.6912708,33.2427444 22.6365318,33.2427444 22.6365318,40.5870514 31.6912708,40.5870514 
			31.6912708,61.1789284 17.9136009,61.1789284 17.9136009,68.5034027 21.5037651,68.5034027 31.6912708,68.5034027 
			40.4582062,68.5034027 40.4582062,62.1445198 40.4582062,60.6990395 40.4582062,40.3505058 40.4582062,33.2427444 		"/>
		<polygon class="st3" points="86.6834335,47.9115295 93.1433258,47.9115295 93.1433258,40.5870743 87.4124451,40.5870743 
			86.6834335,40.5870743 86.6834335,33.2427292 77.9164963,33.2427292 77.9164963,61.6625099 77.9164963,63.1079903 
			77.9164963,68.5033722 87.6006241,68.5033722 93.3315048,68.5033722 93.3315048,61.1789131 86.6834335,61.1789131 		"/>
	</g>
</g>
</svg>
