<?xml version="1.0" encoding="utf-8"?>
<!-- Generator: Adobe Illustrator 27.0.0, SVG Export Plug-In . SVG Version: 6.00 Build 0)  -->
<svg version="1.1" id="Layer_1" xmlns="http://www.w3.org/2000/svg" xmlns:xlink="http://www.w3.org/1999/xlink" x="0px" y="0px"
	 viewBox="0 0 800 800" style="enable-background:new 0 0 800 800;" xml:space="preserve">
<style type="text/css">
	.st0{fill:#FFFFFF;}
</style>
<path class="st0" d="M695.2841187,136.0869751c5.0198975-12.6478195,22.6150513-64.9469147-5.0197144-134.9445343
	c0,0-42.6941528-13.4964428-138.9707031,52.288681c-40.1893616-10.9607544-83.7115479-16.8706474-126.4056091-16.8706474
	c-42.6966553,0.047718-85.2010193,5.7200928-126.4159851,16.8706474
	C202.2058563-12.3540802,159.511795,1.1424391,159.511795,1.1424391
	c-27.6347504,69.9976196-10.0499268,122.2967148-5.0301208,134.9445343
	c-31.8161774,35.4179535-51.8954468,80.958374-51.8954468,136.6211243c0,41.682373,5.3719482,76.4539185,14.88694,105.5154114
	c35.1511459,107.3612061,127.0436783,136.5221558,215.3301086,145.8158569
	c-14.2313538,12.6477661-27.6347351,35.4179688-31.8161621,68.3104858
	c-29.3011475,13.496582-102.1346588,35.4180908-147.3335724-42.1661987c0,0-19.5031586-35.5549927-56.9133835-48.1204529
	c-6.4571609-2.1688843-13.4333801-3.6715393-20.9503174-4.1682434c0,0-49.3905907,0-3.3533936,31.2055054
	c0,0,15.4900284,7.0350952,32.5100784,30.0903931c8.0085449,10.8483276,16.3544464,25.2293091,23.5873718,44.119751
	c0,0,29.2907562,91.0911255,169.9484558,60.723938c0,42.1766357,0.8280334,82.6558228,0.8280334,94.465332
	c0,5.4154053-1.4880981,11.2388916-4.8903809,15.9441528C334.3883667,790.8746338,378.4649048,800,424.7926636,800
	c46.1354065,0,90.0393677-9.0479126,129.8757324-25.3496704c-3.5106201-4.7426758-5.0410156-10.6617432-5.0410156-16.1607056
	c0-16.8603516,0.828064-71.6848145,0.828064-139.9953613c0-48.0761719-15.8977661-78.4329834-34.3209839-94.454895
	c88.862854-9.9523926,180.8078003-38.684082,216.0623169-145.6044006
	c9.585083-29.0696411,14.993103-63.900177,14.993103-105.7268677
	C747.1898804,217.0452728,727.9386597,171.5049286,695.2841187,136.0869751z"/>
</svg>
