<?xml version="1.0" encoding="utf-8"?>
<!-- Generator: Adobe Illustrator 27.0.0, SVG Export Plug-In . SVG Version: 6.00 Build 0)  -->
<svg version="1.1" id="Capa_1" xmlns="http://www.w3.org/2000/svg" xmlns:xlink="http://www.w3.org/1999/xlink" x="0px" y="0px"
	 viewBox="0 0 512 512" style="enable-background:new 0 0 512 512;" xml:space="preserve">
<style type="text/css">
	.st0{fill:#FFFFFF;}
</style>
<g id="Edges">
</g>
<g id="Symbol">
	<g>
		<path class="st0" d="M94.556282,22.4527817C78.3217163,28.766222,64.5924911,37.1841431,50.863266,50.913372
			C37.1340332,64.5423813,28.716114,78.3718262,22.4026737,94.5061798
			c-6.1130161,15.6332779-10.2217627,33.5714722-11.4243221,59.8273773S9.4751511,189.00737,9.4751511,255.9499054
			s0.3006401,75.3604584,1.5032005,101.6163177c1.2025595,26.2559204,5.41152,44.1940918,11.4243221,59.8273926
			c6.3134422,16.2345886,14.7313595,29.9637756,28.4605923,43.6930237s27.4584579,22.1471558,43.6930161,28.4606018
			c15.6332855,6.1130066,33.5714798,10.2217712,59.8273697,11.4243164S189.0574646,502.4747314,256,502.4747314
			s75.3604431-0.3006287,101.616333-1.5031738c26.2559204-1.2025757,44.1940918-5.4115295,59.8273926-11.4243164
			c16.2345581-6.313446,29.9637756-14.7313843,43.6930237-28.4606018
			c13.729248-13.729248,22.1471558-27.4584351,28.4605713-43.6930237
			c6.1130371-15.6333008,10.2217712-33.5714722,11.4243164-59.8273926
			c1.2025757-26.2558899,1.5032043-34.6738281,1.5032043-101.6163177s-0.3006287-75.3604431-1.5032043-101.616333
			s-5.411499-44.1940918-11.4243164-59.8273697c-6.313446-16.1343765-14.7313538-29.9638214-28.3603821-43.5928307
			c-13.729248-13.7292328-27.4584656-22.1471519-43.6930237-28.4605923
			c-15.6333008-6.1130161-33.5714722-10.2217627-59.8273926-11.4243221s-34.6738281-1.5032005-101.616333-1.5032005
			s-75.3604279,0.3006401-101.616333,1.5032005C128.1277618,12.130805,110.1895676,16.3397655,94.556282,22.4527817z
			 M355.6120605,55.3227577c24.0512085,1.1023483,37.078949,5.1108818,45.7975159,8.5181351
			c11.5245361,4.5096016,19.7420349,9.8209114,28.3603821,18.4392586s13.9296265,16.8358383,18.4392395,28.3603745
			c3.4072571,8.7185593,7.4157715,21.7462997,8.5181274,45.797493c1.2025757,25.9552612,1.4029846,33.7718964,1.4029846,99.6120605
			s-0.3006287,73.6568298-1.4029846,99.6120605c-1.102356,24.0512085-5.1108704,37.078949-8.5181274,45.7975159
			c-4.509613,11.5245361-9.8208923,19.7420654-18.4392395,28.3603821
			c-8.6183777,8.6183472-16.8358459,13.929657-28.3603821,18.4392395
			c-8.7185669,3.4072571-21.7463074,7.415802-45.7975159,8.5181274
			c-25.9552307,1.2025757-33.7719116,1.4029846-99.6120605,1.4029846s-73.6568146-0.3006287-99.6120605-1.4029846
			c-24.0512085-1.1023254-37.0789413-5.1108704-45.797493-8.5181274
			c-11.5245361-4.5095825-19.7420273-9.8208923-28.3603821-18.4392395s-13.929657-16.8358459-18.4392624-28.3603821
			c-3.4072533-8.7185669-7.4157867-21.7463074-8.5181351-45.7975159
			c-1.2025604-25.9552307-1.4029884-33.7719116-1.4029884-99.6120605s0.3006401-73.6567993,1.4029884-99.6120605
			c1.1023483-24.0511932,5.1108818-37.0789337,8.5181351-45.797493
			c4.5096054-11.5245361,9.8209152-19.7420273,18.4392624-28.3603821s16.8358459-13.929657,28.3603821-18.4392586
			c8.7185516-3.4072533,21.7462845-7.4157867,45.797493-8.5181351C182.3431854,54.1201897,190.1598358,53.9197617,256,53.9197617
			S329.6568298,54.1201973,355.6120605,55.3227577z"/>
		<path class="st0" d="M129.4305267,256.0500793c0,69.9489136,56.7207642,126.569458,126.5694733,126.569458
			s126.569458-56.7207642,126.569458-126.569458S325.9489136,129.4806366,256,129.4806366
			S129.4305267,186.101181,129.4305267,256.0500793z M338.1749573,256.0500793
			c0,45.396637-36.7783203,82.1749573-82.1749573,82.1749573s-82.174942-36.7783203-82.174942-82.1749573
			S210.6033478,173.8751373,256,173.8751373S338.1749573,210.6534576,338.1749573,256.0500793z"/>
		<circle class="st0" cx="387.6803284" cy="124.4699707" r="29.5629387"/>
	</g>
</g>
</svg>
