<?xml version="1.0" encoding="utf-8"?>
<!-- Generator: Adobe Illustrator 27.0.0, SVG Export Plug-In . SVG Version: 6.00 Build 0)  -->
<svg version="1.1" id="Capa_1" xmlns="http://www.w3.org/2000/svg" xmlns:xlink="http://www.w3.org/1999/xlink" x="0px" y="0px"
	 viewBox="0 0 68.8082275 47.7859421" style="enable-background:new 0 0 68.8082275 47.7859421;" xml:space="preserve">
<style type="text/css">
	.st0{fill:#005687;}
</style>
<path class="st0" d="M66.2456055,33.7799721H50.4962883V1.9504902v-0.559044h-0.5590439H38.6286125h-0.1867142H7.2391586H6.6801147
	v0.559044v10.3565102v0.5590439h0.5590439h15.5211163v17.2997932c0,1.2403793-0.3417587,2.2148838-1.0449314,2.9775639
	c-0.6780586,0.7353859-1.6498356,1.0929756-2.9688301,1.0929756c-1.3211784,0-2.2929535-0.3575897-2.9710131-1.0929756
	c-0.7020807-0.7621346-1.0438404-1.7360935-1.0438404-2.9775639v-3.1817474v-0.5590439H14.172616H2.562624H2.0035799v0.5590439
	v2.8399887c0,3.4405231,0.6682324,6.4290066,1.9861352,8.8819218c1.3364649,2.4905853,3.2985783,4.4210358,5.8306546,5.7378464
	c2.4862185,1.294426,5.5085497,1.9506493,8.9829216,1.9506493c3.5114956,0,6.5447464-0.6567688,9.0156784-1.9522896
	c2.5080547-1.3162651,4.4592514-3.2461662,5.7968063-5.7362061c1.3179016-2.4529152,1.9861336-5.4413986,1.9861336-8.8819218
	V12.866044h2.2809448v31.829483V45.25457h0.5590439h27.8037071h0.5590439v-0.5590439V34.339016v-0.5590439H66.2456055z
	 M4.2397561,28.6612244h8.2557278v1.5046139c0,1.8032455,0.5503092,3.3149586,1.6356411,4.4930973
	c1.110445,1.2032547,2.6631031,1.8136177,4.6153889,1.8136177c1.9511948,0,3.5027599-0.610363,4.613205-1.8136177
	c1.0864239-1.1792336,1.636734-2.6909447,1.636734-4.4930973V11.1889124v-0.5590439h-0.5590439H8.9162912V3.6276226h29.5256081
	h0.1867142h0.9313736h8.7001228v31.8294811v0.5590439h0.5590477h15.7493172v7.0022469H40.11903V11.9521389v-0.5590448h-0.003273
	v-0.2041817v-0.5590439h-0.5590439h-4.5138474h-1.1148109h-0.5590439l-0.0032768,0.5590439v18.6351662
	c0,3.0676441-0.5786972,5.7001743-1.7197151,7.8233395c-1.1224556,2.0898666-2.7591877,3.7091293-4.8665218,4.8141136
	c-2.1466427,1.1257324-4.8293991,1.696785-7.9762058,1.696785c-3.1096821,0-5.7847958-0.5715981-7.9521837-1.6984215
	c-2.1248045-1.1055336-3.7713637-2.7247963-4.8916354-4.8113823c-1.1410179-2.1242599-1.7197161-4.7567902-1.7197161-7.8244343
	V28.6612244z"/>
</svg>
