<?xml version="1.0" encoding="utf-8"?>
<!-- Generator: Adobe Illustrator 27.0.0, SVG Export Plug-In . SVG Version: 6.00 Build 0)  -->
<svg version="1.1" id="Capa_1" xmlns="http://www.w3.org/2000/svg" xmlns:xlink="http://www.w3.org/1999/xlink" x="0px" y="0px"
	 viewBox="0 0 595.2755737 134.2946625" style="enable-background:new 0 0 595.2755737 134.2946625;" xml:space="preserve">
<style type="text/css">
	.st0{fill:#2C4494;}
	.st1{fill:#14AED7;}
</style>
<g>
	<polygon class="st0" points="454.6546936,122.4782867 482.6272888,122.4782867 482.6272888,9.9723883 454.6546936,9.9723883 	"/>
	<path class="st0" d="M329.3906555,33.8160324v6.2034378c-6.3259583-5.6197548-14.2946167-8.4625626-23.7584534-8.4625626
		c-12.441803,0-22.9940796,4.4917603-31.3646851,13.3516617c-8.3247681,8.8106041-12.5455627,19.9242935-12.5455627,33.0311127
		c0,13.106636,4.2207947,24.2203293,12.5448608,33.0309372c8.3685608,8.8598938,18.9208069,13.3516541,31.365387,13.3516541
		c9.4998779,0,17.4685364-2.8155746,23.7584534-8.3812561v6.5373535h26.9268188V33.8160324H329.3906555z M324.4614563,93.2044525
		c-3.7518921,3.9726486-8.5111389,5.9037857-14.5504761,5.9037857c-6.09198,0-10.8612976-1.9550552-14.5804749-5.9769974
		c-3.776001-4.0811768-5.6116638-9.0508499-5.6116638-15.1915588c0-6.140892,1.8356628-11.1103821,5.6116638-15.1922913
		c3.7191772-4.0213928,8.4884949-5.9764442,14.5804749-5.9764442c6.037323,0,10.7972717,1.9311371,14.5499268,5.9032326
		c3.7969666,4.0245209,5.6421814,9.0175476,5.6421814,15.2655029
		C330.1030884,84.1889267,328.2578735,89.1825104,324.4614563,93.2044525z"/>
	<path class="st0" d="M187.5992584,58.8225746c-2.2473602-5.4308395-5.4578857-10.1852837-9.6345367-14.2598381
		c-4.1797638-4.0747375-9.2206268-7.2598801-15.1225739-9.5581856c-5.9021149-2.2968369-12.5632477-3.4476433-19.9805756-3.4476433
		c-7.3121185,0-13.9463806,1.1508064-19.8992844,3.4476433c-5.9560165,2.2983055-11.0239182,5.483448-15.2005615,9.5581856
		c-4.1797791,4.0745544-7.3903122,8.8289986-9.6376572,14.2598381c-2.2475357,5.4324913-3.3667068,11.2820091-3.3667068,17.5500145
		v3.7611008c0,6.0595856,1.0682144,11.7516403,3.2105255,17.0789108c2.1393738,5.3289261,5.275032,10.0292969,9.4036713,14.1040344
		c4.1256943,4.073082,9.1665497,7.2611618,15.1196289,9.5579987c5.9560318,2.29702,12.7460861,3.4476395,20.3703842,3.4476395
		c7.6244812,0,14.4174805-1.1506195,20.3735046-3.4476395c5.9530792-2.2968369,10.9909973-5.4849167,15.1196289-9.5579987
		c4.1257019-4.0747375,7.2611694-8.7751083,9.403656-14.1040344c2.1393738-5.3272705,3.2105408-11.0193253,3.2105408-17.0789108
		v-3.7611008C190.9689026,70.1045837,189.8466034,64.2550659,187.5992584,58.8225746z M157.4137115,93.2044525
		c-3.7520905,3.9726486-8.5111389,5.9037857-14.5506744,5.9037857c-6.0919647,0-10.8612976-1.9550552-14.5804596-5.9769974
		c-3.7758179-4.0811768-5.6116638-9.0508499-5.6116638-15.1915588c0-6.140892,1.8358459-11.1105652,5.6116638-15.1922913
		c3.719162-4.0213928,8.4884949-5.9764442,14.5804596-5.9764442c6.0373383,0,10.7973022,1.9311371,14.5499268,5.9032326
		c3.7969818,4.0245209,5.6422119,9.0175476,5.6422119,15.2655029
		C163.0551758,84.1889267,161.2099457,89.1823273,157.4137115,93.2044525z"/>
	<polygon class="st0" points="55.1316032,9.9724588 26.2407112,9.9724588 26.2407112,33.4058876 55.1316032,33.4058876 
		55.1316032,99.1082382 11.1712999,99.1082382 11.1712999,122.4783707 22.6264076,122.4783707 55.1316032,122.4783707 
		83.1041946,122.4783707 83.1041946,102.1891098 83.1041946,97.5770493 83.1041946,32.6511307 83.1041946,9.9724588 	"/>
	<polygon class="st0" points="230.5946655,56.7760468 251.2062073,56.7760468 251.2062073,33.4059525 232.9207458,33.4059525 
		230.5946655,33.4059525 230.5946655,9.9723883 202.6220703,9.9723883 202.6220703,100.6511765 202.6220703,105.263237 
		202.6220703,122.4782867 233.5211639,122.4782867 251.8066406,122.4782867 251.8066406,99.1081848 230.5946655,99.1081848 	"/>
	<g>
		<path class="st0" d="M555.2263794,95.4443665h26.250061c-2.1008911,5.4835968-5.0776978,10.3262558-8.9233398,14.527977
			c-9.1013184,9.5642471-20.4246216,14.3499298-33.9555664,14.3499298c-13.5380859,0-24.6547852-4.3441467-33.3431091-13.039566
			c-8.6954041-8.6954193-13.0395508-19.8050461-13.0395508-33.3431168c0-13.5309525,4.3441467-24.6477013,13.0395508-33.3431168
			c8.688324-8.6882973,19.8050232-13.039566,33.3431091-13.039566c13.0680542,0,23.9141846,4.2658119,32.5526123,12.7831879
			c8.6313477,8.5173798,12.9541016,19.1356163,12.9541016,31.8475952c0,1.6379547-0.1780396,3.8527603-0.5269775,6.6515274
			l-0.348938,2.1008606h-64.7562866c0.4628906,5.3696518,2.5352783,9.7778931,6.2099609,13.2176056
			c3.6747437,3.4397049,8.3108521,5.1631241,13.9155273,5.1631241c4.6646118,0,8.866333-1.2818756,12.5980225-3.8527603
			C553.0614014,98.0651016,554.4074097,96.7262497,555.2263794,95.4443665z M518.4720459,69.1872025h40.2510376
			c-2.5709229-11.6651077-9.2722778-17.4976616-20.1255493-17.4976616
			C527.7443237,51.6895409,521.0357666,57.5220947,518.4720459,69.1872025z"/>
	</g>
	<polygon class="st1" points="398.0083618,99.1085281 398.0083618,77.9423599 428.2887878,77.9423599 428.2887878,54.5722237 
		398.0083618,54.5722237 398.0083618,33.4060593 441.9664001,33.4060593 441.9664001,9.9725332 398.0083618,9.9725332 
		370.0362244,9.9725332 370.0362244,32.6507874 370.0362244,97.5771103 370.0362244,102.1891403 370.0362244,122.4786606 
		398.0083618,122.4786606 430.5136414,122.4786606 441.9687195,122.4786606 441.9687195,99.1085281 	"/>
</g>
</svg>
