<?xml version="1.0" encoding="utf-8"?>
<!-- Generator: Adobe Illustrator 27.0.0, SVG Export Plug-In . SVG Version: 6.00 Build 0)  -->
<svg version="1.1" id="Capa_1" xmlns="http://www.w3.org/2000/svg" xmlns:xlink="http://www.w3.org/1999/xlink" x="0px" y="0px"
	 viewBox="0 0 357.679718 240.878067" style="enable-background:new 0 0 357.679718 240.878067;" xml:space="preserve">
<style type="text/css">
	.st0{fill:#2A3B9B;}
</style>
<g>
	<path class="st0" d="M354.687439,173.3590393h-84.2979431V2.9922082V0h-2.9923096h-60.5292816h-0.9993439H26.7710304h-2.9922771
		v2.9922082v55.4331322v2.9922104h2.9922771h84.3288422v92.5968704c0,6.6391449-1.8292694,11.8551025-5.5929413,15.9373322
		c-3.6293488,3.9361725-8.830719,5.8501587-15.8906708,5.8501587c-7.0715714,0-12.2729721-1.9139862-15.9022903-5.8501587
		c-3.7578812-4.0792999-5.5870895-9.2923889-5.5870895-15.9373322v-17.0302582v-2.9922028h-2.9922714H2.9922082H0v2.9922028
		v15.2009888c0,18.41539,3.5766389,34.4112091,10.6306944,47.54039
		c7.1534472,13.3308258,17.6556854,23.6635132,31.2085304,30.7116852
		C55.1466751,237.3656921,71.3237,240.878067,89.9201584,240.878067c18.7952423,0,35.0306702-3.5153046,48.2563095-10.4495697
		c13.4243164-7.0453033,23.8680115-17.375061,31.0273285-30.7029572c7.0540466-13.1291809,10.6307678-29.125,10.6307678-47.54039
		v-90.767601h23.0417175v170.3668213v2.9922943h2.9922791H354.687439h2.9922791v-2.9922943v-55.4330597v-2.9922791H354.687439z
		 M340.1279907,217.2249908h-119.700058V53.533596l-0.0174408-5.5826225v-4.0851517h-58.0778503l-0.049881,8.5423889v99.7769394
		c0,15.4883575-2.8730774,28.6879425-8.5402069,39.2327728c-5.470047,10.1847382-13.4514465,18.0791779-23.7223206,23.4649963
		c-10.6835785,5.6027832-24.1753616,8.4434357-40.1000061,8.4434357c-15.7351913,0-29.1893654-2.8469238-39.9871559-8.4606171
		c-10.3635559-5.3920746-18.384758-13.2789001-23.8411694-23.4420929c-5.666851-10.5500183-8.5402107-23.75177-8.5402107-39.2384949
		v-0.6415405h33.0233307v2.4707489c0,11.0979156,3.4422493,20.4621582,10.2348938,27.8356934
		c7.0447845,7.6330261,16.7366867,11.5035248,28.8063736,11.5035248c12.0617905,0,21.7495956-3.8704987,28.7982025-11.5073547
		c6.7929153-7.3737946,10.2370758-16.7377625,10.2370758-27.8318634V43.8658218H41.3303795V17.5517254h211.5072784v173.358902
		h87.290329V217.2249908z"/>
</g>
</svg>
