<?xml version="1.0" encoding="utf-8"?>
<!-- Generator: Adobe Illustrator 27.0.0, SVG Export Plug-In . SVG Version: 6.00 Build 0)  -->
<svg version="1.1" id="Capa_1" xmlns="http://www.w3.org/2000/svg" xmlns:xlink="http://www.w3.org/1999/xlink" x="0px" y="0px"
	 viewBox="0 0 255.4833527 47.3712311" style="enable-background:new 0 0 255.4833527 47.3712311;" xml:space="preserve">
<style type="text/css">
	.st0{fill:#14AED7;}
	.st1{fill:#FFFFFF;}
	.st2{fill:#2B4294;}
</style>
<g>
	<g>
		<rect x="125.0590515" y="6.3659682" class="st0" width="126.1920776" height="36.4327164"/>
		<g>
			<polygon class="st1" points="155.1015778,11.8782187 130.9229431,11.8782187 130.9229431,17.5318851 139.1727448,17.5318851 
				139.1727448,37.3560028 146.8483734,37.3560028 146.8483734,17.5318851 155.1015778,17.5318851 			"/>
			<polygon class="st1" points="166.8326111,32.0502396 166.8326111,27.0598125 177.8491669,27.0598125 177.8491669,21.7554607 
				166.8326111,21.7554607 166.8326111,17.1825047 178.46698,17.1825047 178.46698,11.8782187 166.8326111,11.8782187 
				166.0066681,11.8782187 159.405426,11.8782187 159.405426,37.3560028 166.0066681,37.3560028 166.8326111,37.3560028 
				178.7154388,37.3560028 178.7154388,32.0502396 			"/>
			<path class="st1" d="M198.0013123,38.0547447c-2.7230835,0-5.0633698-0.4019089-7.0142059-1.2043037
				c-1.9541626-0.8038139-3.5624847-1.8618393-4.8283234-3.1769142c-1.2658386-1.313652-2.2026367-2.7395039-2.8070068-4.274704
				c-0.6043854-1.5366192-0.9065704-3.0249557-0.9065704-4.4678459v-0.7683125c0-1.6047878,0.3088989-3.1811733,0.9266968-4.7291565
				c0.6211853-1.5465622,1.5680542-2.9482689,2.8473206-4.2051153c1.2792816-1.2568493,2.8808746-2.2566471,4.8081818-3.0022345
				c1.9239502-0.7441683,4.1803131-1.1162519,6.7657318-1.1162519c2.7499237,0,5.1909637,0.4359913,7.3230896,1.3079739
				c2.1321106,0.8734026,3.8445435,2.0947475,5.1372375,3.6654539c1.2927094,1.5707035,2.0481873,3.3913593,2.2697906,5.4619637
				h-7.6756439c-0.191391-0.8833447-0.6044006-1.6516552-1.2356262-2.3035126
				c-0.6345978-0.6504364-1.4438019-1.1574364-2.4343262-1.518158c-0.990509-0.3607235-2.1186829-0.5410843-3.3845215-0.5410843
				c-1.1819,0-2.249649,0.1746807-3.1965179,0.5240402c-0.9502106,0.3479424-1.7493439,0.8435802-2.3940277,1.4826565
				c-0.6480103,0.6404953-1.1416016,1.4144859-1.4840851,2.3205528c-0.3458405,0.9074879-0.5170746,1.932848-0.5170746,3.0718212
				c0,1.1403961,0.1712341,2.1643372,0.5170746,3.071825c0.3424835,0.907486,0.8528442,1.6871567,1.5243835,2.3375931
				c0.6748962,0.6518574,1.4941711,1.1474953,2.4544525,1.4840775c0.9636688,0.3379993,2.0649719,0.5055809,3.3039703,0.5055809
				c1.9239349,0,3.5524139-0.3948097,4.8887787-1.1858425c1.3329926-0.7910328,2.1388245-1.8504791,2.4107971-3.1769142h7.6756592
				c-0.2484741,1.9087067-1.003952,3.654089-2.2697906,5.2361584c-1.2658539,1.5820656-2.9715424,2.844593-5.1137543,3.7861633
				C203.4474487,37.583252,200.9157715,38.0547447,198.0013123,38.0547447z"/>
			<path class="st1" d="M237.4664917,37.3560028h7.9207458l-9.9823456-25.4777832H223.109024l-9.6566315,25.4777832h7.6756287
				l2.12677-5.8979549h12.0272369L237.4664917,37.3560028z M225.1680145,26.1522865l3.2595367-9.0393486h1.5414886
				l3.3478851,9.0393486H225.1680145z"/>
		</g>
	</g>
	<path class="st2" d="M107.2810059,12.2938204v2.0088558c-2.0485306-1.8198423-4.6290131-2.740427-7.6936798-2.740427
		c-4.0290298,0-7.4461594,1.4545641-10.1568069,4.3236609c-2.6958084,2.8531322-4.0626221,6.4520721-4.0626221,10.6964455
		c0,4.2443142,1.3668137,7.8432541,4.0623856,10.6963882c2.7099915,2.8690948,6.127121,4.323658,10.1570435,4.323658
		c3.0763397,0,5.6568222-0.9117661,7.6936798-2.7140961v2.1169853h8.719696V12.2938204H107.2810059z M105.6847839,31.5255375
		c-1.2149734,1.286459-2.7561493,1.9118176-4.7118683,1.9118176c-1.9727631,0-3.5172119-0.6331024-4.7215881-1.9355259
		c-1.2227783-1.3216057-1.8172226-2.9309311-1.8172226-4.9194736c0-1.9886017,0.5944443-3.597868,1.8172226-4.9197102
		c1.2043762-1.3022461,2.7488251-1.9353485,4.7215881-1.9353485c1.9550629,0,3.4964752,0.6253586,4.7116928,1.9116402
		c1.2295685,1.303257,1.8271103,2.9201469,1.8271103,4.9434185
		C107.5117188,28.6060448,106.9141769,30.223114,105.6847839,31.5255375z"/>
	<path class="st2" d="M61.3647842,20.391674c-0.7277603-1.7586651-1.7674217-3.2982941-3.1199455-4.6177549
		c-1.3535309-1.31952-2.9859123-2.3509626-4.8971329-3.0952215c-1.9112816-0.743783-4.0683479-1.1164484-6.4702988-1.1164484
		c-2.3678818,0-4.5162506,0.3726654-6.4439735,1.1164484c-1.9287338,0.7442589-3.56987,1.7757015-4.92239,3.0952215
		c-1.3535347,1.3194609-2.3931999,2.8590899-3.1209564,4.6177549c-0.7278175,1.759201-1.0902386,3.6534462-1.0902386,5.6832104
		v1.2179546c0,1.9622726,0.3459206,3.8055267,1.0396633,5.5306549c0.692791,1.7256622,1.70821,3.2477798,3.0451851,4.5672989
		c1.3360214,1.318985,2.968399,2.3513794,4.8961792,3.0951614c1.9287376,0.7438431,4.1275597,1.1164474,6.5965309,1.1164474
		c2.4690285,0,4.6688042-0.3726044,6.597538-1.1164474c1.927784-0.743782,3.5592079-1.7761765,4.896183-3.0951614
		c1.3360214-1.319519,2.3513794-2.8416367,3.0451813-4.5672989c0.692791-1.7251282,1.0396652-3.5683823,1.0396652-5.5306549
		v-1.2179546C62.4559746,24.0451202,62.0925407,22.1508751,61.3647842,20.391674z M51.589817,31.5255375
		c-1.2150383,1.286459-2.7561569,1.9118176-4.711937,1.9118176c-1.9727554,0-3.5172081-0.6331024-4.7215805-1.9355259
		c-1.2227211-1.3216057-1.8172226-2.9309311-1.8172226-4.9194736c0-1.9886017,0.5945015-3.5979271,1.8172226-4.9197102
		c1.2043724-1.3022461,2.7488251-1.9353485,4.7215805-1.9353485c1.9550667,0,3.4964828,0.6253586,4.7116966,1.9116402
		c1.2295723,1.303257,1.8271103,2.9201469,1.8271103,4.9434185C53.416687,28.6060448,52.819149,30.2230549,51.589817,31.5255375z"/>
	<polygon class="st2" points="18.4678631,4.5725703 9.1121435,4.5725703 9.1121435,12.1610041 18.4678631,12.1610041 
		18.4678631,33.437355 4.2322249,33.437355 4.2322249,41.005291 7.9417253,41.005291 18.4678631,41.005291 27.5262108,41.005291 
		27.5262108,34.4350319 27.5262108,32.9415131 27.5262108,11.9165916 27.5262108,4.5725703 	"/>
	<polygon class="st2" points="75.2879639,19.7289486 81.9625854,19.7289486 81.9625854,12.1610241 76.041214,12.1610241 
		75.2879639,12.1610241 75.2879639,4.5725474 66.2296143,4.5725474 66.2296143,33.9370041 66.2296143,35.4305267 
		66.2296143,41.0052643 76.2356491,41.0052643 82.1570206,41.0052643 82.1570206,33.4373398 75.2879639,33.4373398 	"/>
</g>
</svg>
