<?xml version="1.0" encoding="UTF-8" standalone="no"?>
<!-- Generator: Adobe Illustrator 27.0.0, SVG Export Plug-In . SVG Version: 6.00 Build 0)  -->

<svg
   version="1.1"
   id="Capa_1"
   x="0px"
   y="0px"
   viewBox="0 0 512 512.00006"
   xml:space="preserve"
   sodipodi:docname="jotaele_favicon.svg"
   width="512"
   height="512.00006"
   inkscape:version="1.2.2 (b0a8486541, 2022-12-01)"
   xmlns:inkscape="http://www.inkscape.org/namespaces/inkscape"
   xmlns:sodipodi="http://sodipodi.sourceforge.net/DTD/sodipodi-0.dtd"
   xmlns="http://www.w3.org/2000/svg"
   xmlns:svg="http://www.w3.org/2000/svg"><defs
   id="defs25" /><sodipodi:namedview
   id="namedview23"
   pagecolor="#ffffff"
   bordercolor="#000000"
   borderopacity="0.25"
   inkscape:showpageshadow="2"
   inkscape:pageopacity="0.0"
   inkscape:pagecheckerboard="0"
   inkscape:deskcolor="#d1d1d1"
   showgrid="false"
   inkscape:zoom="0.25"
   inkscape:cx="-682"
   inkscape:cy="-9.9999999"
   inkscape:window-width="1854"
   inkscape:window-height="1011"
   inkscape:window-x="66"
   inkscape:window-y="32"
   inkscape:window-maximized="1"
   inkscape:current-layer="g20"
   showguides="true" />
<style
   type="text/css"
   id="style2">
	.st0{fill:#2C4494;}
	.st1{fill:#14AED7;}
</style>
<g
   id="g20"
   transform="translate(545.8241,-570.95575)">
	
	
	
	<path
   id="polygon10"
   style="fill:#14aed7;fill-opacity:1"
   d="m 83.104195,9.9727515 v 22.6786455 64.925824 4.612169 20.28897 H 55.131726 22.626372 11.171357 V 99.108578 h 15.937487 v -6.298212 h 26.223085 c 0.05784,0 0.104274,-0.04752 0.104274,-0.106858 V 39.299915 c 0,-0.05934 -0.04644,-0.106858 -0.104274,-0.106858 l -27.104444,0 c -0.406262,-2.001002 -0.07992,-4.837059 0.01313,-5.787185 V 9.9727515 h 28.891111 z"
   transform="matrix(-4.532847,0,0,4.532847,-169.1255,527.78009)"
   sodipodi:nodetypes="cccccccccccssssccccc" /><path
   id="polygon10-6"
   style="fill:#2c4494;fill-opacity:1"
   d="m 26.240701,9.9727515 0,29.2187505 c 6.2385,0 19.373563,0.0016 27.002983,0.0016 0.05784,0 0.104274,0.04752 0.104274,0.106858 v 53.403593 c 0,0.05934 -0.04643,0.106858 -0.104274,0.106858 H 11.171443 V 122.47836 H 22.626458 55.131812 83.104281 V 102.18939 97.577221 32.651397 9.9727515 H 55.131812 Z"
   transform="matrix(4.532847,0,0,4.532847,-410.1227,527.78009)"
   sodipodi:nodetypes="cccsssccccccccccc" />
	
	
	
</g>
</svg>
