<?xml version="1.0" encoding="utf-8"?>
<!-- Generator: Adobe Illustrator 27.0.0, SVG Export Plug-In . SVG Version: 6.00 Build 0)  -->
<svg version="1.1" id="Capa_1" xmlns="http://www.w3.org/2000/svg" xmlns:xlink="http://www.w3.org/1999/xlink" x="0px" y="0px"
	 viewBox="0 0 512 512" style="enable-background:new 0 0 512 512;" xml:space="preserve">
<style type="text/css">
	.st0{fill:#2A3B9B;}
</style>
<path class="st0" d="M160,74.6666641C95.3860474,74.6666641,42.6666679,127.3860474,42.6666679,192
	c0,43.6923065,32.9348793,84.8309326,73.0833282,127.0208435S205.31604,403.94104,244.6875,443.3125
	c6.2484741,6.2459106,16.3765259,6.2459106,22.625,0c39.37146-39.37146,88.789032-82.1017456,128.9375-124.2916565
	S469.3333435,235.6923065,469.3333435,192c0-64.6139526-52.7193909-117.3333359-117.3333435-117.3333359
	c-37.0819702,0-69.3672485,19.9092102-96,53.7291641C229.3672485,94.5758743,197.0820007,74.6666641,160,74.6666641z
	 M160,106.6666641c31.2380981,0,57.2405396,16.6229248,82.4791718,56.5416641
	c4.7264252,7.4673462,14.6114044,9.6893158,22.0787811,4.9629059c2.0011902-1.2666473,3.6962585-2.9617157,4.9628906-4.9629059
	C294.7594604,123.2895889,320.7619019,106.6666641,352,106.6666641c47.3220825,0,85.3333435,38.0112839,85.3333435,85.3333359
	c0,25.641037-25.7318115,64.5024109-64.25,104.9791565C337.958313,333.8902588,294.2966614,372.4528503,256,409.791687
	c-38.2966461-37.3388367-81.9582825-75.9014282-117.083313-112.8125305
	C100.3984604,256.5024109,74.6666718,217.641037,74.6666718,192C74.6666718,144.677948,112.677948,106.6666641,160,106.6666641z"/>
</svg>
