<?xml version="1.0" encoding="utf-8"?>
<!-- Generator: Adobe Illustrator 27.0.0, SVG Export Plug-In . SVG Version: 6.00 Build 0)  -->
<svg version="1.1" id="Layer_1" xmlns="http://www.w3.org/2000/svg" xmlns:xlink="http://www.w3.org/1999/xlink" x="0px" y="0px"
	 viewBox="0 0 800 800" style="enable-background:new 0 0 800 800;" xml:space="preserve">
<style type="text/css">
	.st0{fill:#FFFFFF;}
</style>
<g>
	<rect x="15.2156858" y="269.2433472" class="st0" width="161.2896729" height="529.9360962"/>
	<path class="st0" d="M190.3261261,96.4312057c0.6351929-52.1605682-41.144577-94.9684753-93.3125305-95.6036758
		C44.8454132,0.2001734,2.0451226,41.9799423,1.4099214,94.1478958c-0.6349706,52.160347,41.137188,94.9608688,93.3051376,95.603447
		h1.1492691c50.8825607,1.2854004,93.169014-38.9217072,94.4617996-89.8044968v-0.0604477V96.4312057z"/>
	<path class="st0" d="M798.597229,481.672821c0-161.2822876-106.671814-223.9519348-199.2967529-223.9519348
		c-92.6245117,0-161.282074,53.9145813-176.4941406,86.4023743h-2.0715027v-74.8799133H268.6612244v529.9360962h161.2973022
		V522.6889648c0-85.0186462,57.8233643-122.806427,114.0440979-122.806427c46.081543,0,93.312561,35.4817505,93.312561,120.7273254
		v278.5695801H798.597229V481.672821z"/>
</g>
</svg>
