<?xml version="1.0" encoding="UTF-8" standalone="no"?>
<svg
   version="1.1"
   viewBox="0 0 311.81303 311.81302"
   width="311.81302"
   height="311.81302"
   xmlns="http://www.w3.org/2000/svg"
   xmlns:svg="http://www.w3.org/2000/svg">
  <!-- Generator: Adobe Illustrator 29.0.0, SVG Export Plug-In . SVG Version: 2.1.0 Build 186)  -->
  <rect
     class="st1"
     x="291.99698"
     y="-7840.6226"
     width="45.689079"
     height="13.792127"
     id="rect1" />
  <g
     id="g14"
     transform="matrix(0.99999969,0,0,0.92381625,-832.20165,-45.787119)"
     style="fill:#FFFFFF">
    <g
       id="g13"
       transform="matrix(2.1581962,0,0,2.1581962,-2208.6699,-781.40092)"
       style="fill:#FFFFFF">
      <g
         id="g9"
         transform="matrix(1.3671549,0,0,1.3671549,-180.50686,-8.5260766)"
         style="fill:#FFFFFF">
        <g
           id="g8"
           style="fill:#FFFFFF">
          <path
             id="path3-7"
             style="fill:#ffffff"
             class="st1"
             d="M 1217.9097 287.91303 C 1198.1588 287.37578 1182.5222 291.29178 1173.2007 294.50298 C 1166.9845 296.6147 1162.6314 305.25313 1162.6314 311.74776 L 1162.6314 384.68717 C 1162.4736 394.34939 1170.5536 402.20137 1180.5032 402.20137 L 1180.5046 402.20137 L 1184.8575 402.20137 L 1246.3925 402.25583 L 1250.2775 402.25296 C 1260.221 402.25296 1268.3075 394.34956 1268.3075 384.68072 L 1268.3075 312.19631 C 1268.3075 305.5543 1263.955 296.91563 1257.4291 294.80392 C 1243.0918 290.16081 1229.7603 288.23538 1217.9097 287.91303 z M 1178.7921 314.31366 L 1252.1422 314.31366 L 1252.1422 345.27073 L 1178.7921 345.27073 L 1178.7921 314.31366 z M 1187.9594 364.62283 A 9.2403135 10.002325 0 0 1 1197.1995 374.62562 A 9.2403135 10.002325 0 0 1 1187.9594 384.6277 A 9.2403135 10.002325 0 0 1 1178.7186 374.62562 A 9.2403135 10.002325 0 0 1 1187.9594 364.62283 z M 1242.9259 364.62283 A 9.2403135 10.002325 0 0 1 1252.166 374.62562 A 9.2403135 10.002325 0 0 1 1242.9259 384.6277 A 9.2403135 10.002325 0 0 1 1233.6859 374.62562 A 9.2403135 10.002325 0 0 1 1242.9259 364.62283 z " />
        </g>
      </g>
    </g>
  </g>
</svg>
