<?xml version="1.0" encoding="UTF-8"?>
<svg id="Capa_1" xmlns="http://www.w3.org/2000/svg" version="1.1" viewBox="0 0 503.644043 503.6439819">
  <!-- Generator: Adobe Illustrator 29.0.0, SVG Export Plug-In . SVG Version: 2.1.0 Build 186)  -->
  <defs>
    <style>
      .st0 {
        fill: none;
      }

      .st1 {
        fill: #878787;
      }
    </style>
  </defs>
  <circle class="st0" cx="167.309261" cy="333.897147" r="19.3433554"/>
  <circle class="st0" cx="82.0146643" cy="267.2427694" r="28.6964625" transform="translate(-18.7380682 6.4861974) rotate(-4.0650121)"/>
  <circle class="st0" cx="227.8861741" cy="418.4435989" r="36.7672705" transform="translate(-90.0424998 63.5513447) rotate(-13.2825331)"/>
  <circle class="st0" cx="216.9029543" cy="66.7208935" r="18.4165874" transform="translate(-10.0277916 65.7180079) rotate(-16.845062)"/>
  <path class="st1" d="M251.4338948,497.4892385c44.557124,0,87.3083372-11.7194489,124.7513017-33.6833404l-23.8602204-23.8602204L61.7635283,149.3843243l-23.8602204-23.8602204C15.9394164,162.966974,4.2198731,205.7182816,4.2198731,250.2754056c0,66.0332477,25.7150212,128.1141427,72.4070725,174.8064772,46.6928064,46.692712,108.7735126,72.4073557,174.8069491,72.4073557ZM227.8862685,381.6761284c20.3061609,0,36.7671873,16.4614039,36.7671873,36.7674704,0,20.3061609-16.4610264,36.7674704-36.7671873,36.7674704s-36.7675648-16.4613096-36.7675648-36.7674704c0-20.3060665,16.4614039-36.7674704,36.7675648-36.7674704ZM167.309261,314.5537091c10.6831314,0,19.3432728,8.6603302,19.3432728,19.3434615,0,10.683037-8.6601414,19.3433672-19.3432728,19.3433672s-19.3432728-8.6603302-19.3432728-19.3433672c0-10.6831314,8.6601414-19.3434615,19.3432728-19.3434615ZM53.318201,267.242793c0-15.8487685,12.8476948-28.6966521,28.6963689-28.6966521s28.6967465,12.8478836,28.6967465,28.6966521c0,15.8486741-12.8480724,28.6965577-28.6967465,28.6965577s-28.6963689-12.8478836-28.6963689-28.6965577Z"/>
  <path class="st1" d="M439.5661131,354.0877132l23.7153436,23.7153436c17.320094-28.6609756,28.5935866-60.5175467,33.1061927-93.9879606-2.9809702.208868-5.9887451.3224099-9.0229469.3224099-70.2823384,0-127.2579066-56.9754738-127.2579066-127.2584729,0-8.8141733.8970093-17.4188179,2.6030636-25.7283291-51.2239114-3.5765225-91.6754058-46.2341085-91.6754058-98.3671101,0-9.9439293,1.4863323-19.5376059,4.2230412-28.5883956-7.8699729-.7476965-15.8169617-1.1335313-23.8236001-1.1335313-45.6698912,0-89.4423208,12.3123585-127.5474714,35.3463563l23.7580988,23.7580988,291.921591,291.921591ZM216.9029071,48.304384c10.1713906,0,18.4166275,8.2453312,18.4166275,18.4165331,0,10.1711075-8.2452368,18.4164387-18.4166275,18.4164387-10.1710131,0-18.4164387-8.2453312-18.4164387-18.4164387,0-10.1712018,8.2454256-18.4165331,18.4164387-18.4165331Z"/>
  <circle class="st1" cx="462.2432987" cy="217.7570731" r="31.5237494" transform="translate(-46.7758392 173.1865974) rotate(-20.2204008)"/>
  <path class="st1" d="M352.7326132,66.7209171c18.4244612,0,33.3606473-14.9359974,33.3606473-33.3604586S371.1570744,0,352.7326132,0s-33.3601754,14.9359974-33.3601754,33.3604586,14.9357142,33.3604586,33.3601754,33.3604586Z"/>
  <path class="st1" d="M430.7190948,124.3077993c10.5474097,0,19.0973125-8.5500916,19.0973125-19.0971238s-8.5499029-19.0971238-19.0973125-19.0971238c-10.5466546,0-19.096935,8.5500916-19.096935,19.0971238s8.5502804,19.0971238,19.096935,19.0971238Z"/>
  <polygon class="st1" points="80.42168 119.1482971 381.6873065 420.4140179 404.7788775 443.5054946 465.7799447 504.5064674 503.644043 466.6423691 442.7749222 405.7730596 419.7063805 382.7048954 118.1447711 81.1431917 95.0679237 58.0661555 38.6387347 1.6370608 .774542 39.5011591 57.3302977 96.0569148 80.42168 119.1482971"/>
</svg>