<?xml version="1.0" encoding="utf-8"?>
<!-- Generator: Adobe Illustrator 27.0.0, SVG Export Plug-In . SVG Version: 6.00 Build 0)  -->
<svg version="1.1" id="Capa_1" xmlns="http://www.w3.org/2000/svg" xmlns:xlink="http://www.w3.org/1999/xlink" x="0px" y="0px"
	 viewBox="0 0 503.644043 503.6439819" style="enable-background:new 0 0 503.644043 503.6439819;" xml:space="preserve">
<style type="text/css">
	.st0{fill:#2A4394;}
</style>
<g>
	
		<ellipse transform="matrix(0.973249 -0.229753 0.229753 0.973249 -72.8246078 66.4929886)" class="st0" cx="249.1273804" cy="345.9759216" rx="23.7766647" ry="23.7768021"/>
	<circle class="st0" cx="212.5482178" cy="285.4973145" r="12.5089645"/>
	
		<ellipse transform="matrix(0.9238792 -0.3826842 0.3826842 0.9238792 -85.5419769 77.9806366)" class="st0" cx="153.2461548" cy="254.0141296" rx="18.5575695" ry="18.5574818"/>
	
		<ellipse transform="matrix(0.5257313 -0.8506507 0.8506507 0.5257313 -20.7427826 254.9994659)" class="st0" cx="218.3127747" cy="146.1019135" rx="11.9095516" ry="11.909586"/>
	
		<ellipse transform="matrix(0.9664996 -0.2566682 0.2566682 0.9664996 -46.20961 107.544548)" class="st0" cx="388.8790894" cy="230.7930145" rx="20.3857956" ry="20.3859177"/>
	<path class="st0" d="M318.06073,133.1208801c11.9147339,0,21.5736694-9.658783,21.5736694-21.5735168
		s-9.6589355-21.5735245-21.5736694-21.5735245s-21.5733643,9.6587906-21.5733643,21.5735245
		S306.1459961,133.1208801,318.06073,133.1208801z"/>
	<path class="st0" d="M368.493042,170.3612061c6.8208008,0,12.3498535-5.5291748,12.3498535-12.3497314
		s-5.5290527-12.3497314-12.3498535-12.3497314c-6.8203125,0-12.3496094,5.5291748-12.3496094,12.3497314
		S361.6727295,170.3612061,368.493042,170.3612061z"/>
	<path class="st0" d="M429.887207,73.7567749C382.324707,26.1937866,319.0864258,0,251.8222656,0
		S121.3198242,26.1937866,73.7568359,73.7567749C26.1938477,121.3192749,0,184.5576172,0,251.8217163
		S26.1938477,382.3241577,73.7568359,429.887146c47.5629883,47.562561,110.8012695,73.7568359,178.0654297,73.7568359
		S382.324707,477.449707,429.887207,429.887146c47.5629883-47.5629883,73.7568359-110.8012695,73.7568359-178.0654297
		S477.4501953,121.3192749,429.887207,73.7567749z M251.8222656,468.6439819
		c-57.9155273,0-112.3642578-22.5537109-153.3164062-63.5057983C57.5532227,364.1859741,35,309.7372437,35,251.8217163
		c0-51.9671021,18.1696777-101.1351929,51.4853516-140.274353l40.5445557,40.5445557l14.9327393,14.9327393L336.7851562,361.847229
		l14.9328613,14.9328003l40.378418,40.378418C352.9575195,450.473999,303.7895508,468.6439819,251.8222656,468.6439819z
		 M416.6318359,392.7219238l-40.3425293-40.3427124l-14.9179688-14.9177246l-195.013916-195.0139771l-14.9233398-14.9234619
		L110.9221191,87.012146C150.161377,53.3580933,199.5791016,35,251.8222656,35
		c57.9155273,0,112.3642578,22.5531616,153.3164062,63.5053101S468.644043,193.90625,468.644043,251.8217163
		C468.644043,304.0648193,450.2858887,353.482605,416.6318359,392.7219238z"/>
	<g>
		<path class="st0" d="M317.7971191,374.4779663c-19.8493652,10.5935059-42.1084595,16.2384033-65.2442627,16.2384033
			c-37.1002197,0-71.9797363-14.4475098-98.2131348-40.6812744c-26.2338867-26.2336426-40.6813965-61.1130981-40.6813965-98.2131348
			c0-23.1358643,5.6450195-45.3947754,16.2384644-65.2442627l-15.4299316-15.4299316
			c-14.2036133,24.213562-21.7824097,51.8599854-21.7824097,80.6741943c0,42.7023926,16.6293945,82.848877,46.8242188,113.0438843
			c30.1953125,30.1952515,70.3416748,46.8244019,113.0441895,46.8244019c28.814209,0,56.4605713-7.5787354,80.6741943-21.7823486
			L317.7971191,374.4779663z"/>
		<path class="st0" d="M185.4343262,130.175415c17.9570312-9.9430542,37.958313-15.7880859,58.8428955-17.006958
			c0.484375,20.8668213,8.5605469,40.6589966,22.8652344,55.9271851
			c9.6733398,10.3244629,21.5935059,17.9498291,34.7131348,22.3773804
			c0.0131836,27.5653687,10.7536621,53.4807739,30.2468262,72.973877
			c14.7573242,14.7572632,33.1936035,24.49823,53.2414551,28.3659668
			c-2.7874146,9.1045532-6.526123,17.8436279-11.1296387,26.1424561l15.3362427,15.3362427
			c11.2005615-18.5344849,18.4909058-39.135498,21.4091187-60.7801514
			c-1.9277344,0.1350708-3.8728027,0.2084961-5.8349609,0.2084961c-45.4501953,0-82.295166-36.8449097-82.295166-82.2955322
			c0-5.6999512,0.5800781-11.2644043,1.6833496-16.6380005c-33.1254883-2.3128662-59.284668-29.8986816-59.284668-63.6120605
			c0-6.430542,0.9611816-12.6345825,2.730957-18.4875488c-5.0893555-0.4835205-10.2285156-0.7330322-15.40625-0.7330322
			c-29.5338135,0-57.8405762,7.9621582-82.4824219,22.8577881L185.4343262,130.175415z"/>
	</g>
</g>
</svg>
