<?xml version="1.0" encoding="utf-8"?>
<!-- Generator: Adobe Illustrator 27.0.0, SVG Export Plug-In . SVG Version: 6.00 Build 0)  -->
<svg version="1.1" id="Capa_1" xmlns="http://www.w3.org/2000/svg" xmlns:xlink="http://www.w3.org/1999/xlink" x="0px" y="0px"
	 viewBox="0 0 503.644043 503.6439819" style="enable-background:new 0 0 503.644043 503.6439819;" xml:space="preserve">
<style type="text/css">
	.st0{fill:#878787;}
</style>
<g>
	<path class="st0" d="M317.7971191,374.4779358L129.8967896,186.5776825l-15.4299316-15.4299316
		c-14.2036133,24.213562-21.7824097,51.8599854-21.7824097,80.6741943c0,42.7023773,16.6293945,82.8488617,46.8242188,113.043869
		c30.1953125,30.1952515,70.3416748,46.8244019,113.0441895,46.8244019c28.814209,0,56.4605713-7.5787354,80.6741943-21.7823486
		L317.7971191,374.4779358z M142.9927521,281.3518982c-10.2490234,0-18.5573807-8.3084717-18.5573807-18.5574951
		c0-10.2490387,8.3083572-18.5575104,18.5573807-18.5575104s18.5576172,8.3084717,18.5576172,18.5575104
		C161.5503693,273.0434265,153.2417755,281.3518982,142.9927521,281.3518982z M198.1511078,318.4074402
		c-6.9085693,0-12.5089111-5.6004639-12.5089111-12.5089722c0-6.9085693,5.6003418-12.5090332,12.5089111-12.5090332
		s12.5089111,5.6004639,12.5089111,12.5090332C210.6600189,312.8069763,205.0596771,318.4074402,198.1511078,318.4074402z
		 M237.3250732,384.349762c-13.1315918,0-23.7768555-10.6452026-23.7768555-23.7767944
		c0-13.1315308,10.6452637-23.7767944,23.7768555-23.7767944s23.7766113,10.6452637,23.7766113,23.7767944
		C261.1016846,373.7045593,250.456665,384.349762,237.3250732,384.349762z"/>
	<path class="st0" d="M405.1246338,273.7198792c-45.4501953,0-82.295166-36.8448944-82.295166-82.295517
		c0-5.6999512,0.5800781-11.2644043,1.6833496-16.6380005c-33.1254883-2.3128662-59.284668-29.8986816-59.284668-63.6120682
		c0-6.430542,0.9611816-12.6345825,2.730957-18.4875488c-5.0893555-0.4835205-10.2285156-0.7330322-15.40625-0.7330322
		c-29.5338135,0-57.8405762,7.9621582-82.4824219,22.8577881l15.3638916,15.3638992l188.7799072,188.779892l15.3362427,15.3362427
		c11.2005615-18.5344849,18.4909058-39.135498,21.4091187-60.7801514
		C409.0318604,273.6464539,407.086792,273.7198792,405.1246338,273.7198792z M230.2223511,145.0304413
		c-6.5773926,0-11.9095459-5.3320923-11.9095459-11.9095459c0-6.5775223,5.3321533-11.9096146,11.9095459-11.9096146
		c6.5776367,0,11.909668,5.3320923,11.909668,11.9096146C242.132019,139.698349,236.7999878,145.0304413,230.2223511,145.0304413z"
		/>
	
		<ellipse transform="matrix(0.9664996 -0.2566682 0.2566682 0.9664996 -46.20961 107.544548)" class="st0" cx="388.8790894" cy="230.7930145" rx="20.3857956" ry="20.3859177"/>
	<path class="st0" d="M318.06073,133.1208801c11.9147339,0,21.5736694-9.658783,21.5736694-21.5735168
		s-9.6589355-21.5735245-21.5736694-21.5735245s-21.5733643,9.6587906-21.5733643,21.5735245
		S306.1459961,133.1208801,318.06073,133.1208801z"/>
	<path class="st0" d="M368.493042,170.3612061c6.8208008,0,12.3498535-5.5291748,12.3498535-12.3497314
		s-5.5290527-12.3497314-12.3498535-12.3497314c-6.8203125,0-12.3496094,5.5291748-12.3496094,12.3497314
		S361.6727295,170.3612061,368.493042,170.3612061z"/>
	<path class="st0" d="M429.887207,73.7567749C382.324707,26.1937866,319.0864258,0,251.8222656,0
		S121.3198242,26.1937866,73.7568359,73.7567749C26.1938477,121.3192749,0,184.5576172,0,251.8217163
		S26.1938477,382.3241577,73.7568359,429.887146c47.5629883,47.562561,110.8012695,73.7568359,178.0654297,73.7568359
		S382.324707,477.449707,429.887207,429.887146c47.5629883-47.5629883,73.7568359-110.8012695,73.7568359-178.0654297
		S477.4501953,121.3192749,429.887207,73.7567749z M251.8222656,468.6439819
		c-57.9155273,0-112.3642578-22.5537109-153.3164062-63.5057983C57.5532227,364.1859741,35,309.7372437,35,251.8217163
		c0-51.9671021,18.1696777-101.1351929,51.4853516-140.274353l40.5445557,40.5445557l14.9327393,14.9327393L336.7851562,361.847229
		l14.9328613,14.9328003l40.378418,40.378418C352.9575195,450.473999,303.7895508,468.6439819,251.8222656,468.6439819z
		 M416.6318359,392.7219238l-40.3425293-40.3427124l-14.9179688-14.9177246l-195.013916-195.0139771l-14.9233398-14.9234619
		L110.9221191,87.012146C150.161377,53.3580933,199.5791016,35,251.8222656,35
		c57.9155273,0,112.3642578,22.5531616,153.3164062,63.5053101S468.644043,193.90625,468.644043,251.8217163
		C468.644043,304.0648193,450.2858887,353.482605,416.6318359,392.7219238z"/>
</g>
</svg>
