<?xml version="1.0" encoding="UTF-8"?>
<svg id="Capa_1" xmlns="http://www.w3.org/2000/svg" version="1.1" viewBox="0 0 661.6923358 512">
  <!-- Generator: Adobe Illustrator 29.0.0, SVG Export Plug-In . SVG Version: 2.1.0 Build 186)  -->
  <defs>
    <style>
      .st0 {
        fill: #2a3b9b;
      }
    </style>
  </defs>
  <path class="st0" d="M443.7655634,457.6835327h-165.3779297c-82.7626953,0-150.0947266-67.3330078-150.0947266-150.0957031v-143.6707153l54.3707886,54.6400757.050354.0506592c6.2530518,6.2530518,16.4281616,6.2525024,22.6818848-.0012817,6.260437-6.2603149,6.2671509-16.4291992.0299072-22.6829834l-84.1766968-84.3997803,1.5831909-1.5985718-.0077515-.0077515-1.5908813,1.5907593c-6.2380981-6.2384644-16.401062-6.2505493-22.6549683-.0269775L14.2028803,195.4480591c-6.2571411,6.2268066-6.2913818,16.3927612-.076355,22.6615601l.0501099.050415c6.2284546,6.2284546,16.3834229,6.2478638,22.637085.0431519l54.479187-54.197937v143.5825806c0,103.1650391,83.9306641,187.0957031,187.0947266,187.0957031h165.3779297c10.2177734,0,18.5-8.2832031,18.5-18.5s-8.2822266-18.5-18.5-18.5Z"/>
  <path class="st0" d="M647.5657343,293.8903198l-.0500488-.050354c-6.2285156-6.2284546-16.3834229-6.2478638-22.637085-.0432129l-54.479126,54.197998v-143.5825806c0-103.1650391-83.9306641-187.0957031-187.0947266-187.0957031h-165.3779907c-10.2177734,0-18.5,8.2832031-18.5,18.5s8.2822266,18.5,18.5,18.5h165.3779907c82.7626953,0,150.0947266,67.3330078,150.0947266,150.0957031v143.6706543l-54.3708496-54.6400146-.050293-.0506592c-6.2531738-6.2530518-16.4282227-6.2525024-22.6818848.0012817-6.260498,6.2603149-6.2672119,16.4291992-.0300293,22.6829224l84.1767578,84.3998413-1.583252,1.5985718.0078125.0077515,1.5908203-1.5907593c6.2381592,6.2384644,16.401123,6.2505493,22.6550293.0269775l84.3758545-83.9667969c6.2572021-6.2268066,6.2913818-16.3928223.0762939-22.6616211Z"/>
</svg>