<?xml version="1.0" encoding="utf-8"?>
<!-- Generator: Adobe Illustrator 27.0.0, SVG Export Plug-In . SVG Version: 6.00 Build 0)  -->
<svg version="1.1" id="Layer_1" xmlns="http://www.w3.org/2000/svg" xmlns:xlink="http://www.w3.org/1999/xlink" x="0px" y="0px"
	 viewBox="0 0 800 800" style="enable-background:new 0 0 800 800;" xml:space="preserve">
<style type="text/css">
	.st0{fill:#FFFFFF;}
</style>
<g>
	<path class="st0" d="M746.0692139,68.1263199L19.839119,351.1304626
		c-23.5227051,9.1674805-22.0952587,42.922821,2.1161461,50.0718079l184.5428467,54.4947815l68.87146,218.5364685
		c7.1943054,22.8269043,36.1217346,29.7471313,52.8671265,12.6491089l95.4133606-97.4199829l187.2070618,137.4163818
		c22.9103394,16.8169556,55.5361938,4.3227539,61.3554688-23.4941406L796.203125,110.5867996
		C802.2774658,81.5474472,773.7122192,57.3551025,746.0692139,68.1263199z M655.019165,199.6828003L317.6894531,497.9811096
		c-3.3623962,2.9740601-5.5023193,7.0895081-6.0027771,11.5505676l-12.9873657,115.4521484
		c-0.4242249,3.7651367-5.6954651,4.2631836-6.8178406,0.645752l-53.4342804-172.1797485
		c-2.4473114-7.8829346,0.7435608-16.4236755,7.7567596-20.7727051l398.3489685-247.0611572
		C653.7156372,179.9325409,663.0952148,192.5434113,655.019165,199.6828003z"/>
</g>
</svg>
