<?xml version="1.0" encoding="UTF-8"?>
<svg id="Layer_1" xmlns="http://www.w3.org/2000/svg" version="1.1" viewBox="0 0 800 800">
  <!-- Generator: Adobe Illustrator 29.0.0, SVG Export Plug-In . SVG Version: 2.1.0 Build 186)  -->
  <defs>
    <style>
      .st0 {
        fill: #fff;
      }
    </style>
  </defs>
  <path class="st0" d="M591.4245797,370.7865404c-3.4455835-1.6515253-6.9453956-3.2410024-10.490981-4.7629957-6.1745609-113.7710718-68.3412205-178.905016-172.7262592-179.571637-.4728634-.0029085-.9432474-.0029085-1.4161426-.0029085-62.4358002,0-114.3626914,26.6506964-146.3234536,75.1465944l57.4086069,39.3811033c23.875914-36.2246543,61.346714-43.9470513,88.9423425-43.9470513.3187282,0,.6386962,0,.9541186.0029244,34.370169.2191396,60.3059123,10.212209,77.0922766,29.7000868,12.2158389,14.1877772,20.3861148,33.7935529,24.4316778,58.5368705-30.4729241-5.1792464-63.4290485-6.7716161-98.6600095-4.7517748-99.2445406,5.716701-163.0468956,63.5982189-158.7617698,144.026541,2.1744373,40.7972459,22.4988853,75.8948604,57.2269759,98.8225046,29.362191,19.3819953,67.1788018,28.8605604,106.4815501,26.7148744,51.9035914-2.8456357,92.6216876-22.6484908,121.0280754-58.8585231,21.5735817-27.4981696,35.2184687-63.1332705,41.2430585-108.0344086,24.7358159,14.9281599,43.0679501,34.572684,53.1922363,58.1877539,17.2155206,40.1431012,18.2196083,106.1095151-35.6058886,159.8891751-47.1593183,47.113545-103.8472026,67.4954957-189.5185041,68.1246239-95.0323182-.7041456-166.9041366-31.1812656-213.6330748-90.5855714-43.757871-55.6254039-66.3721829-135.9699991-67.2158734-238.8047222.8436905-102.8355496,23.4580023-183.1809712,67.2158734-238.8059619,46.7289382-59.4034953,118.5995169-89.8801862,213.6318351-90.58639,95.7218736.7116155,168.8461156,31.3349636,217.3636923,91.0250982,23.7900255,29.2713596,41.7263481,66.0822139,53.5505394,109.0022432l67.2746396-17.9492122c-14.3323762-52.8297692-36.885061-98.3537735-67.5746453-136.1083123C614.3355039,40.0521255,523.3666766.8400556,406.1558384.0269938h-.4691443c-116.9725311.810237-206.9227123,40.1714552-267.3511317,116.9891875-53.7730325,68.358306-81.5107489,163.4739539-82.4427675,282.7025991l-.0029165.2812196.0029165.2812196c.9320186,119.2273737,28.6697351,214.3459936,82.4427675,282.7038706,60.4284194,76.8156344,150.3786005,116.1796363,267.3511317,116.9879161h.4691443c103.9950439-.720802,177.2984057-27.9480828,237.6860106-88.2815226,79.0071572-78.9322035,76.6281546-177.8713346,50.5882454-238.6089143-18.6820455-43.5554037-54.3004582-78.9313452-103.0055147-102.2960289ZM411.8679302,539.6030941c-43.4970428,2.449824-88.6860758-17.0738777-90.9142808-58.8918677-1.6515571-31.0062463,22.0660258-65.6039149,93.5836894-69.72529,8.1902698-.4724819,16.227231-.7032873,24.1225493-.7032873,25.977416,0,50.2799433,2.5235698,72.3742596,7.3536678-8.2410973,102.9180369-56.5794907,119.6294156-99.1662174,121.9667772Z"/>
</svg>