<?xml version="1.0" encoding="UTF-8"?>
<svg id="Layer_1" xmlns="http://www.w3.org/2000/svg" version="1.1" viewBox="0 0 800 800">
  <!-- Generator: Adobe Illustrator 29.0.0, SVG Export Plug-In . SVG Version: 2.1.0 Build 186)  -->
  <defs>
    <style>
      .st0 {
        fill: #fff;
      }
    </style>
  </defs>
  <path class="st0" d="M660.3378917,171.0914634c-5.399409-2.7906677-10.6557485-5.8499022-15.749234-9.166209-14.8116282-9.791928-28.3918319-21.3297684-40.4479621-34.3649554-30.1651707-34.5149418-41.4312911-69.5298637-45.5810676-94.0453048h.1666685c-3.4664712-20.3489856-2.0332338-33.5149943-1.8165699-33.5149943h-137.3931439v531.2734711c0,7.1329751,0,14.1826415-.2999728,21.1489481,0,.8666051-.0833088,1.6665835-.1333043,2.5998661,0,.3833325,0,.7832963-.0833088,1.18326v.2999728c-2.9409339,38.7087504-24.94395,73.4187788-58.6970713,92.5953726-17.3234046,9.8554141-36.9165426,15.0251389-56.8471626,14.9992511-64.0134765,0-115.8942021-52.197406-115.8942021-116.6608417s51.880751-116.6608417,115.8942276-116.6608417c12.117442-.0112401,24.1602978,1.8956064,35.6815578,5.6497423l.1666685-139.8930191c-70.710479-9.1338365-142.0179791,11.7266331-196.6568475,57.5304679-23.6810559,20.5756531-43.5898315,45.1260224-58.830401,72.5463502-5.7997097,9.9995007-27.6819522,50.1808034-30.3318201,115.394222-1.6665835,37.0148043,9.4495315,75.3629058,14.7492674,91.2121307v.333337c3.3331669,9.3328775,16.2491887,41.1812629,37.2981331,68.0299488,16.9730676,21.5366546,37.0262096,40.4554894,59.5136046,56.1472006v-.333337l.3333116.333337c66.5133517,45.1977351,140.2596695,42.2312186,140.2596695,42.2312186,12.7660354-.5166368,55.5305474,0,104.0948137-23.0155134,53.8639894-25.5153886,84.5291148-63.5301531,84.5291148-63.5301531,19.5904423-22.7142182,35.1680744-48.5999192,46.0643402-76.5461658,12.4326983-32.6816771,16.5825257-71.8797525,16.5825257-87.5456268v-281.8526109c1.6665835.9999602,23.8654873,15.6825564,23.8654873,15.6825564,0,0,31.9817405,20.4989816,81.8792532,33.8483059,35.7982309,9.4995206,84.0291092,11.4994157,84.0291092,11.4994157v-136.3931837c-16.8991806,1.8332265-51.2141278-3.4998354-86.3456846-21.0156184Z"/>
</svg>