<?xml version="1.0" encoding="utf-8"?>
<!-- Generator: Adobe Illustrator 27.0.0, SVG Export Plug-In . SVG Version: 6.00 Build 0)  -->
<svg version="1.1" id="Layer_1" xmlns="http://www.w3.org/2000/svg" xmlns:xlink="http://www.w3.org/1999/xlink" x="0px" y="0px"
	 viewBox="0 0 800 800" style="enable-background:new 0 0 800 800;" xml:space="preserve">
<style type="text/css">
	.st0{fill:#FFFFFF;}
</style>
<g id="XMLID_826_">
	<path id="XMLID_827_" class="st0" d="M781.8657837,148.0980682c-12.567749,5.5741882-25.4890747,10.2787018-38.6916504,14.098053
		c15.6309814-17.6774139,27.5483398-38.4774094,34.8231812-61.2387009
		c1.6309204-5.1019363-0.0593872-10.6864471-4.2529297-14.0232162c-4.1883545-3.3393555-10.0076904-3.739357-14.6193848-1.0064545
		c-28.0386963,16.6296768-58.2890625,28.5806503-90.0076904,35.5690384
		C637.1663208,90.2761383,593.7702026,72.5084,548.9082642,72.5084c-94.6967773,0-171.7393494,77.0400009-171.7393494,171.7341919
		c0,7.4580688,0.472229,14.8748474,1.4064331,22.188385c-117.509552-10.3174133-226.7559967-68.0748444-301.7753601-160.0980835
		c-2.6735458-3.2799988-6.7922516-5.0477448-11.0090332-4.7096786c-4.2193527,0.3303223-8.0103188,2.7096786-10.1419334,6.3664551
		c-15.2154846,26.1083832-23.2593536,55.9690247-23.2593536,86.3509521c0,41.3806458,14.7741928,80.6425629,40.8722572,111.3212738
		c-7.9354858-2.7483826-15.6361275-6.1832275-22.9858055-10.2632141c-3.9458046-2.196106-8.7612915-2.1625671-12.6812859,0.0851746
		c-3.9225845,2.2477417-6.3819351,6.3819275-6.4851646,10.9006348c-0.0180626,0.7612915-0.0180626,1.5225525-0.0180626,2.2941895
		c0,61.7677307,33.243866,117.3780518,84.0696716,147.6877441c-4.3664551-0.4361572-8.7303162-1.0683899-13.0658035-1.8967896
		c-4.4696732-0.8541565-9.0658112,0.7122803-12.0800018,4.1213074c-3.0193481,3.4064636-4.0180588,8.1548462-2.6270981,12.4903259
		c18.8129044,58.7354431,67.2490234,101.9380188,125.8038635,115.1096497
		c-48.565155,30.4180908-104.1032181,46.3509521-162.4051514,46.3509521c-12.1651649,0-24.4000015-0.7147827-36.3741951-2.1315918
		c-5.9483871-0.7071533-11.6361284,2.8051758-13.6619358,8.4619141c-2.0258064,5.6593628,0.1212903,11.9690552,5.1819348,15.2129517
		c74.8980637,48.0231934,161.5019226,73.4064331,250.4438324,73.4064331
		c174.8490295,0,284.2296448-82.4515991,345.1974182-151.6206665
		c76.0258179-86.2477417,119.628418-200.4076843,119.628418-313.2051086c0-4.7122498-0.0723267-9.4709778-0.2167969-14.2142181
		c29.994751-22.5987091,55.8193359-49.9483643,76.8335571-81.3832092c3.1922607-4.7741852,2.8464355-11.0838623-0.8515625-15.478714
		C793.2748413,147.1922455,787.1199951,145.7703247,781.8657837,148.0980682z"/>
</g>
</svg>
