<?xml version="1.0" encoding="utf-8"?>
<!-- Generator: Adobe Illustrator 27.0.0, SVG Export Plug-In . SVG Version: 6.00 Build 0)  -->
<svg version="1.1" id="Capa_1" xmlns="http://www.w3.org/2000/svg" xmlns:xlink="http://www.w3.org/1999/xlink" x="0px" y="0px"
	 viewBox="0 0 512 512" style="enable-background:new 0 0 512 512;" xml:space="preserve">
<style type="text/css">
	.st0{fill:#FFFFFF;}
</style>
<g id="Edges">
</g>
<g id="Edges_00000134943197079955151230000002059790530691596444_">
</g>
<g>
	<polygon class="st0" points="128.6022797,212.4785614 113.4457092,289.2567749 109.9519577,289.2567749 96.1018066,215.9308472 
		63.2637405,215.9308472 51.1437569,289.2567749 47.5524254,289.2567749 30.7703018,212.4785614 0,212.4785614 
		25.0663662,318.4371948 40.4480019,318.4371948 46.3207321,318.4371948 53.9306679,318.4371948 59.4587708,318.4371948 
		67.7579651,318.4371948 79.1473694,255.196701 91.6075821,318.4371948 100.0826035,318.4371948 107.6855087,318.4371948 
		115.464241,318.4371948 119.0933762,318.4371948 134.4750061,318.4371948 157.290741,212.4785614 	"/>
	<polygon class="st0" points="312.1818848,212.6274261 294.3246765,297.5587463 290.3959351,297.5587463 272.0958862,216.4161987 
		266.8420105,216.4161987 245.9801788,216.4161987 242.0364075,216.4161987 226.419281,297.5587463 222.4888916,297.5587463 
		201.7899933,212.6274261 170.2465973,212.6274261 198.8355255,319.1554871 244.3358307,319.1554871 256.778717,262.3545837 
		270.1307068,319.1554871 316.6202698,319.1554871 341.753418,212.6274261 	"/>
	<polygon class="st0" points="483.3115234,212.4785614 468.1549683,289.2567749 464.6612244,289.2567749 450.8110657,215.9308472 
		417.9729919,215.9308472 405.8529968,289.2567749 402.2616882,289.2567749 385.4795532,212.4785614 354.709259,212.4785614 
		379.7756042,318.4371948 395.1572571,318.4371948 401.0299988,318.4371948 408.6399231,318.4371948 414.1680298,318.4371948 
		422.4672241,318.4371948 433.8566284,255.196701 446.3168335,318.4371948 454.7918701,318.4371948 462.3947449,318.4371948 
		470.1734924,318.4371948 473.8026123,318.4371948 489.1842651,318.4371948 512,212.4785614 	"/>
</g>
</svg>
